{
.appVersion = "3342";
.formatVersion = 3;
axes = (
{
name = Weight;
tag = wght;
}
);
customParameters = (
{
name = "Use Typo Metrics";
value = 1;
},
{
name = fsType;
value = (
);
},
{
name = "Write lastChange";
value = 0;
},
{
name = "Write DisplayStrings";
value = 0;
}
);
date = "2021-12-21 15:12:09 +0000";
familyName = "Hedvig Letters Sans";
featurePrefixes = (
{
automatic = 1;
code = "languagesystem DFLT dflt;

languagesystem latn dflt;
languagesystem latn AZE;
languagesystem latn CRT;
languagesystem latn KAZ;
languagesystem latn TAT;
languagesystem latn TRK;
languagesystem latn ROM;
languagesystem latn MOL;
languagesystem latn NLD;
languagesystem latn CAT;
";
name = Languagesystems;
}
);
features = (
{
automatic = 1;
code = "feature locl;
feature subs;
feature sinf;
feature sups;
feature numr;
feature dnom;
feature frac;
feature ordn;
feature calt;
feature ss01;
feature case;
";
tag = aalt;
},
{
automatic = 1;
code = "lookup ccmp_Other_1 {
	@CombiningTopAccents = [acutecomb brevecomb caroncomb circumflexcomb commaturnedabovecomb dieresiscomb dotaccentcomb gravecomb hungarumlautcomb macroncomb ringcomb tildecomb];
	lookupflag UseMarkFilteringSet @CombiningTopAccents;
	sub i' @CombiningTopAccents by idotless;
	sub j' @CombiningTopAccents by jdotless;
} ccmp_Other_1;
";
tag = ccmp;
},
{
automatic = 1;
code = "script latn;
language AZE;
lookup locl_latn_0 {
	sub i by idotaccent;
} locl_latn_0;
language CRT;
lookup locl_latn_0;
language KAZ;
lookup locl_latn_0;
language TAT;
lookup locl_latn_0;
language TRK;
lookup locl_latn_0;

script latn;
language ROM;
lookup locl_latn_1 {
	sub Scedilla by Scommaaccent;
	sub scedilla by scommaaccent;
	sub Tcedilla by Tcommaaccent;
	sub tcedilla by tcommaaccent;
} locl_latn_1;
language MOL;
lookup locl_latn_1;

script latn;
language NLD;
lookup locl_latn_2 {
	sub I J by I_J.loclNLD;
	sub i j by i_j.loclNLD;
} locl_latn_2;

script latn;
language CAT;
lookup locl_latn_3 {
	sub l periodcentered' l by periodcentered.loclCAT;

glyphs = (
{
color = 6;
glyphname = A;
kernLeft = A;
kernRight = A;
layers = (
{
anchors = (
{
name = bottom;
pos = (322,0);
},
{
name = ogonek;
pos = (626,0);
},
{
name = top;
pos = (319,700);
}
);
layerId = m01;
shapes = (
{
closed = 1;
nodes = (
(105,0,l),
(319,620,l),
(528,0,l),
(626,0,l),
(380,700,l),
(259,700,l),
(12,0,l)
);
},
{
closed = 1;
nodes = (
(474,245,l),
(474,317,l),
(154,317,l),
(154,245,l)
);
}
);
width = 638;
}
);
unicode = 65;
},
{
color = 6;
glyphname = AE;
kernRight = E;
layers = (
{
anchors = (
{
name = bottom;
pos = (643,0);
},
{
name = top;
pos = (643,700);
}
);
guides = (
{
pos = (307,245);
}
);
layerId = m01;
shapes = (
{
closed = 1;
nodes = (
(83,0,l),
(470,700,l),
(386,700,l),
(-17,0,l)
);
},
{
closed = 1;
nodes = (
(847,0,l),
(847,72,l),
(438,72,l),
(438,0,l)
);
},
{
closed = 1;
nodes = (
(528,0,l),
(528,700,l),
(438,700,l),
(438,0,l)
);
},
{
closed = 1;
nodes = (
(847,319,l),
(847,391,l),
(231,391,l),
(231,319,l)
);
},
{
closed = 1;
nodes = (
(847,628,l),
(847,700,l),
(438,700,l),
(448,628,l)
);
}
);
width = 911;
}
);
unicode = 198;
},
{
color = 6;
glyphname = B;
kernLeft = H;
layers = (
{
anchors = (
{
name = bottom;
pos = (309,0);
},
{
name = top;
pos = (309,700);
}
);
layerId = m01;
shapes = (
{
closed = 1;
nodes = (
(368,0,ls),
(498,0,o),
(579,74,o),
(579,189,cs),
(579,269,o),
(533,326,o),
(443,351,c),
(535,378,o),
(579,436,o),
(579,519,cs),
(579,631,o),
(495,700,o),
(358,700,cs),
(130,700,l),
(130,628,l),
(343,628,ls),
(436,628,o),
(482,588,o),
(482,507,cs),
(482,426,o),
(436,386,o),
(343,386,cs),
(130,386,l),
(130,314,l),
(343,314,ls),
(436,314,o),
(482,277,o),
(482,197,cs),
(482,115,o),
(435,72,o),
(343,72,cs),
(130,72,l),
(130,0,l)
);
},
{
closed = 1;
nodes = (
(184,0,l),
(184,700,l),
(90,700,l),
(90,0,l)
);
}
);
width = 638;
}
);
unicode = 66;
},
{
color = 6;
glyphname = C;
kernLeft = O;
kernRight = C;
layers = (
{
anchors = (
{
name = bottom;
pos = (377,0);
},
{
name = top;
pos = (369,700);
}
);
layerId = m01;
shapes = (
{
closed = 1;
nodes = (
(522,-10,o),
(654,81,o),
(658,230,c),
(563,230,l),
(556,111,o),
(468,65,o),
(373,65,cs),
(227,65,o),
(146,173,o),
(146,350,cs),
(146,529,o),
(233,635,o),
(377,635,cs),
(470,635,o),
(557,591,o),
(563,480,c),
(657,480,l),
(653,623,o),
(545,710,o),
(381,710,cs),
(170,710,o),
(49,559,o),
(49,350,cs),
(49,143,o),
(165,-10,o),
(373,-10,cs)
);
}
);
width = 702;
}
);
unicode = 67;
},
{
color = 6;
glyphname = D;
kernLeft = H;
kernRight = D;
layers = (
{
anchors = (
{
name = bottom;
pos = (347,0);
},
{
name = center;
pos = (347,350);
},
{
name = top;
pos = (347,700);
}
);
layerId = m01;
shapes = (
{
closed = 1;
nodes = (
(550,0,o),
(656,153,o),
(656,350,cs),
(656,547,o),
(550,700,o),
(314,700,c),
(304,628,l),
(488,628,o),
(559,517,o),
(559,350,cs),
(559,183,o),
(488,72,o),
(304,72,c),
(314,0,l)
);
},
{
closed = 1;
nodes = (
(314,0,l),
(304,72,l),
(90,72,l),
(90,0,l)
);
},
{
closed = 1;
nodes = (
(184,0,l),
(184,700,l),
(90,700,l),
(90,0,l)
);
},
{
closed = 1;
nodes = (
(304,628,l),
(314,700,l),
(90,700,l),
(90,628,l)
);
}
);
width = 705;
}
);
unicode = 68;
},
{
color = 3;
glyphname = Eth;
kernLeft = H;
kernRight = D;
layers = (
{
layerId = m01;
shapes = (
{
closed = 1;
nodes = (
(356,325,l),
(356,387,l),
(36,387,l),
(36,325,l)
);
},
{
pos = (4,0);
ref = D;
}
);
width = 709;
}
);
unicode = 208;
},
{
color = 6;
glyphname = E;
kernLeft = H;
kernRight = E;
layers = (
{
anchors = (
{
name = bottom;
pos = (269,0);
},
{
name = ogonek;
pos = (520,0);
},
{
name = top;
pos = (299,700);
},
{
name = topleft;
pos = (15,700);
}
);
layerId = m01;
shapes = (
{
closed = 1;
nodes = (
(184,0,l),
(184,700,l),
(90,700,l),
(90,0,l)
);
},
{
closed = 1;
nodes = (
(520,0,l),
(520,72,l),
(90,72,l),
(90,0,l)
);
},
{
closed = 1;
nodes = (
(520,319,l),
(520,391,l),
(90,391,l),
(90,319,l)
);
},
{
closed = 1;
nodes = (
(520,628,l),
(520,700,l),
(90,700,l),
(90,628,l)
);
}
);
width = 584;
}
);
unicode = 69;
},
{
color = 6;
glyphname = F;
kernLeft = H;
layers = (
{
anchors = (
{
name = bottom;
pos = (269,0);
},
{
name = top;
pos = (269,700);
}
);
layerId = m01;
shapes = (
{
closed = 1;
nodes = (
(184,0,l),
(184,700,l),
(90,700,l),
(90,0,l)
);
},
{
closed = 1;
nodes = (
(520,319,l),
(520,391,l),
(90,391,l),
(90,319,l)
);
},
{
closed = 1;
nodes = (
(520,628,l),
(520,700,l),
(90,700,l),
(90,628,l)
);
}
);
width = 565;
}
);
unicode = 70;
},
{
color = 6;
glyphname = G;
kernLeft = O;
kernRight = G;
layers = (
{
anchors = (
{
name = bottom;
pos = (377,0);
},
{
name = top;
pos = (377,700);
}
);
layerId = m01;
shapes = (
{
closed = 1;
nodes = (
(480,-10,o),
(560,10,o),
(639,51,c),
(549,100,l),
(504,77,o),
(453,65,o),
(396,65,cs),
(231,65,o),
(146,161,o),
(146,350,cs),
(146,527,o),
(235,635,o),
(381,635,cs),
(470,635,o),
(557,591,o),
(563,480,c),
(657,480,l),
(653,623,o),
(545,710,o),
(381,710,cs),
(182,710,o),
(49,565,o),
(49,350,cs),
(49,123,o),
(171,-10,o),
(390,-10,cs)
);
},
{
closed = 1;
nodes = (
(639,280,l),
(549,282,l),
(549,100,l),
(639,51,l)
);
},
{
closed = 1;
nodes = (
(639,280,l),
(639,354,l),
(377,354,l),
(377,280,l)
);
}
);
width = 707;
}
);
unicode = 71;
},
{
color = 6;
glyphname = H;
kernLeft = H;
kernRight = H;
layers = (
{
anchors = (
{
name = bottom;
pos = (362,0);
},
{
name = center;
pos = (362,350);
},
{
name = top;
pos = (362,700);
},
{
name = topleft;
pos = (15,700);
}
);
layerId = m01;
shapes = (
{
closed = 1;
nodes = (
(634,0,l),
(634,700,l),
(540,700,l),
(540,0,l)
);
},
{
closed = 1;
nodes = (
(184,0,l),
(184,700,l),
(90,700,l),
(90,0,l)
);
},
{
closed = 1;
nodes = (
(595,315,l),
(595,387,l),
(165,387,l),
(165,315,l)
);
}
);
width = 724;
}
);
unicode = 72;
},
{
color = 3;
glyphname = Hbar;
kernLeft = H;
kernRight = H;
layers = (
{
layerId = m01;
shapes = (
{
closed = 1;
nodes = (
(700,500,l),
(700,562,l),
(30,562,l),
(30,500,l)
);
},
{
pos = (3,0);
ref = H;
}
);
width = 731;
}
);
unicode = 294;
},
{
color = 6;
glyphname = I;
kernLeft = H;
kernRight = H;
layers = (
{
anchors = (
{
name = bottom;
pos = (137,0);
},
{
name = ogonek;
pos = (184,0);
},
{
name = top;
pos = (137,700);
},
{
name = topleft;
pos = (15,700);
}
);
layerId = m01;
shapes = (
{
closed = 1;
nodes = (
(184,0,l),
(184,700,l),
(90,700,l),
(90,0,l)
);
}
);
width = 274;
}
);
unicode = 73;
},
{
color = 6;
glyphname = IJ;
kernLeft = H;
kernRight = J;
layers = (
{
layerId = m01;
shapes = (
{
closed = 1;
nodes = (
(448,-10,o),
(537,73,o),
(537,234,cs),
(537,700,l),
(443,700,l),
(443,254,ls),
(443,122,o),
(393,65,o),
(305,65,cs),
(222,65,o),
(178,115,o),
(178,209,cs),
(178,282,l),
(84,282,l),
(84,221,ls),
(84,66,o),
(163,-10,o),
(305,-10,cs)
);
},
{
closed = 1;
nodes = (
(178,330,l),
(178,700,l),
(84,700,l),
(84,330,l)
);
}
);
width = 620;
}
);
unicode = 306;
},
{
color = 6;
glyphname = J;
kernLeft = J;
kernRight = J;
layers = (
{
anchors = (
{
name = bottom;
pos = (275,0);
},
{
name = top;
pos = (431,700);
}
);
layerId = m01;
shapes = (
{
closed = 1;
nodes = (
(389,-10,o),
(478,73,o),
(478,234,cs),
(478,700,l),
(384,700,l),
(384,254,ls),
(384,122,o),
(334,65,o),
(246,65,cs),
(163,65,o),
(119,115,o),
(119,209,cs),
(119,282,l),
(29,282,l),
(29,221,ls),
(29,66,o),
(104,-10,o),
(246,-10,cs)
);
}
);
width = 561;
}
);
unicode = 74;
},
{
color = 6;
glyphname = K;
kernLeft = H;
kernRight = K;
layers = (
{
anchors = (
{
name = bottom;
pos = (300,0);
},
{
name = top;
pos = (300,700);
}
);
layerId = m01;
shapes = (
{
closed = 1;
nodes = (
(599,700,l),
(488,700,l),
(129,285,l),
(175,221,l)
);
},
{
closed = 1;
nodes = (
(184,0,l),
(184,700,l),
(90,700,l),
(90,0,l)
);
},
{
closed = 1;
nodes = (
(599,0,l),
(337,414,l),
(248,392,l),
(488,0,l)
);
}
);
width = 610;
}
);
unicode = 75;
},
{
color = 6;
glyphname = L;
kernLeft = H;
kernRight = L;
layers = (
{
anchors = (
{
name = bottom;
pos = (295,0);
},
{
name = center;
pos = (258,350);
},
{
name = top;
pos = (139,700);
},
{
name = topright;
pos = (500,700);
}
);
layerId = m01;
shapes = (
{
closed = 1;
nodes = (
(184,0,l),
(184,700,l),
(90,700,l),
(90,0,l)
);
},
{
closed = 1;
nodes = (
(510,0,l),
(510,72,l),
(90,72,l),
(90,0,l)
);
}
);
width = 522;
}
);
unicode = 76;
},
{
color = 3;
glyphname = Lcaron;
kernLeft = H;
kernRight = L;
layers = (
{
layerId = m01;
shapes = (
{
closed = 1;
nodes = (
(365,507,o),
(420,561,o),
(420,632,cs),
(420,676,o),
(393,710,o),
(349,710,cs),
(315,710,o),
(291,686,o),
(291,656,cs),
(291,623,o),
(315,600,o),
(346,600,cs),
(367,600,o),
(381,608,o),
(393,623,c),
(370,611,l),
(369,575,o),
(335,551,o),
(295,541,c),
(295,497,l)
);
},
{
ref = L;
}
);
width = 525;
}
);
unicode = 317;
},
{
color = 3;
glyphname = Lslash;
kernRight = L;
layers = (
{
layerId = m01;
shapes = (
{
closed = 1;
nodes = (
(371,355,l),
(371,420,l),
(41,300,l),
(41,235,l)
);
},
{
pos = (9,0);
ref = L;
}
);
width = 532;
}
);
unicode = 321;
},
{
color = 6;
glyphname = M;
kernLeft = H;
kernRight = H;
layers = (
{
anchors = (
{
name = bottom;
pos = (433,0);
},
{
name = top;
pos = (433,700);
}
);
guides = (
{
pos = (370,350);
}
);
layerId = m01;
shapes = (
{
closed = 1;
nodes = (
(174,0,l),
(174,631,l),
(367,0,l),
(481,0,l),
(688,631,l),
(688,0,l),
(776,0,l),
(776,700,l),
(632,700,l),
(425,67,l),
(429,67,l),
(237,700,l),
(90,700,l),
(90,0,l)
);
}
);
width = 866;
}
);
unicode = 77;
},
{
color = 6;
glyphname = N;
kernLeft = H;
kernRight = H;
layers = (
{
anchors = (
{
name = bottom;
pos = (377,0);
},
{
name = top;
pos = (377,700);
}
);
layerId = m01;
shapes = (
{
closed = 1;
nodes = (
(176,0,l),
(176,584,l),
(556,0,l),
(664,0,l),
(664,700,l),
(578,700,l),
(578,117,l),
(198,700,l),
(90,700,l),
(90,0,l)
);
}
);
width = 754;
}
);
unicode = 78;
},
{
color = 6;
glyphname = Eng;
kernLeft = N;
kernRight = N;
layers = (
{
layerId = m01;
shapes = (
{
closed = 1;
nodes = (
(536,-247,ls),
(624,-247,o),
(664,-220,o),
(664,-111,cs),
(664,700,l),
(578,700,l),
(578,135,l),
(198,700,l),
(90,700,l),
(90,0,l),
(176,0,l),
(176,584,l),
(578,-11,l),
(578,-104,ls),
(578,-172,o),
(560,-177,o),
(511,-177,cs),
(446,-177,l),
(446,-247,l)
);
}
);
width = 754;
}
);
metricLeft = N;
metricRight = N;
unicode = 330;
},
{
color = 6;
glyphname = O;
kernLeft = O;
kernRight = O;
layers = (
{
anchors = (
{
name = bottom;
pos = (380,0);
},
{
name = center;
pos = (380,350);
},
{
name = ogonek;
pos = (680,10);
},
{
name = top;
pos = (380,700);
},
{
name = topleft;
pos = (25,700);
},
{
name = topright;
pos = (735,700);
}
);
layerId = m01;
shapes = (
{
closed = 1;
nodes = (
(596,-10,o),
(712,153,o),
(712,350,cs),
(712,547,o),
(596,710,o),
(380,710,cs),
(164,710,o),
(48,547,o),
(48,350,cs),
(48,153,o),
(164,-10,o),
(380,-10,cs)
);
},
{
closed = 1;
nodes = (
(226,65,o),
(145,183,o),
(145,350,cs),
(145,517,o),
(226,635,o),
(380,635,cs),
(534,635,o),
(615,517,o),
(615,350,cs),
(615,183,o),
(534,65,o),
(380,65,cs)
);
}
);
width = 760;
}
);
unicode = 79;
},
{
color = 3;
glyphname = Oslash;
kernLeft = O;
kernRight = O;
layers = (
{
anchors = (
{
name = bottom;
pos = (302,0);
},
{
name = top;
pos = (302,700);
}
);
layerId = m01;
shapes = (
{
closed = 1;
nodes = (
(177,-48,l),
(652,748,l),
(578,748,l),
(103,-48,l)
);
},
{
ref = O;
}
);
width = 760;
}
);
unicode = 216;
},
{
color = 6;
glyphname = OE;
kernLeft = O;
kernRight = E;
layers = (
{
anchors = (
{
name = bottom;
pos = (683,0);
},
{
name = ogonek;
pos = (898,0);
},
{
name = top;
pos = (683,700);
},
{
name = topleft;
pos = (403,700);
}
);
layerId = m01;
shapes = (
{
closed = 1;
nodes = (
(400,72,l),
(216,72,o),
(145,183,o),
(145,350,cs),
(145,517,o),
(216,628,o),
(400,628,c),
(390,700,l),
(154,700,o),
(48,547,o),
(48,350,cs),
(48,153,o),
(154,0,o),
(390,0,c)
);
},
{
closed = 1;
nodes = (
(574,0,l),
(574,72,l),
(400,72,l),
(390,0,l)
);
},
{
closed = 1;
nodes = (
(898,0,l),
(898,72,l),
(478,72,l),
(478,0,l)
);
},
{
closed = 1;
nodes = (
(572,0,l),
(572,700,l),
(478,700,l),
(478,0,l)
);
},
{
closed = 1;
nodes = (
(574,0,l),
(574,700,l),
(480,700,l),
(480,0,l)
);
},
{
closed = 1;
nodes = (
(898,319,l),
(898,391,l),
(478,391,l),
(478,319,l)
);
},
{
closed = 1;
nodes = (
(574,628,l),
(574,700,l),
(390,700,l),
(400,628,l)
);
},
{
closed = 1;
nodes = (
(898,628,l),
(898,700,l),
(478,700,l),
(478,628,l)
);
}
);
width = 962;
}
);
unicode = 338;
},
{
color = 6;
glyphname = P;
kernLeft = H;
layers = (
{
anchors = (
{
name = bottom;
pos = (294,0);
},
{
name = top;
pos = (294,700);
}
);
layerId = m01;
shapes = (
{
closed = 1;
nodes = (
(184,0,l),
(184,290,l),
(341,290,ls),
(481,290,o),
(575,370,o),
(575,498,cs),
(575,626,o),
(487,700,o),
(341,700,cs),
(90,700,l),
(90,0,l)
);
},
{
closed = 1;
nodes = (
(184,628,l),
(327,628,ls),
(423,628,o),
(476,587,o),
(476,498,cs),
(476,407,o),
(423,362,o),
(336,362,cs),
(184,362,l)
);
}
);
width = 601;
}
);
unicode = 80;
},
{
color = 6;
glyphname = Thorn;
kernLeft = H;
layers = (
{
anchors = (
{
name = bottom;
pos = (295,0);
},
{
name = top;
pos = (295,700);
}
);
layerId = m01;
shapes = (
{
closed = 1;
nodes = (
(184,0,l),
(184,150,l),
(341,150,ls),
(481,150,o),
(575,230,o),
(575,358,cs),
(575,486,o),
(487,560,o),
(341,560,cs),
(90,560,l),
(90,0,l)
);
},
{
closed = 1;
nodes = (
(184,488,l),
(327,488,ls),
(423,488,o),
(476,447,o),
(476,358,cs),
(476,267,o),
(423,222,o),
(336,222,cs),
(184,222,l)
);
},
{
closed = 1;
nodes = (
(184,397,l),
(184,700,l),
(90,700,l),
(90,397,l)
);
}
);
width = 615;
}
);
unicode = 222;
},
{
color = 6;
glyphname = Q;
kernLeft = O;
kernRight = O;
layers = (
{
anchors = (
{
name = bottom;
pos = (380,0);
},
{
name = top;
pos = (380,700);
}
);
layerId = m01;
shapes = (
{
closed = 1;
nodes = (
(444,-10,o),
(496,5,o),
(537,28,cs),
(646,90,o),
(712,204,o),
(712,350,cs),
(712,566,o),
(579,710,o),
(380,710,cs),
(181,710,o),
(48,566,o),
(48,350,cs),
(48,134,o),
(181,-10,o),
(380,-10,cs)
);
},
{
closed = 1;
nodes = (
(444,-10,o),
(481,0,o),
(692,0,c),
(702,70,l),
(627,70,o),
(579,64,o),
(528,60,c),
(380,-10,l)
);
},
{
closed = 1;
nodes = (
(234,65,o),
(145,173,o),
(145,350,cs),
(145,527,o),
(234,635,o),
(380,635,cs),
(526,635,o),
(615,527,o),
(615,350,cs),
(615,173,o),
(526,65,o),
(380,65,cs)
);
},
{
closed = 1;
nodes = (
(750,0,l),
(750,70,l),
(702,70,l),
(692,0,l)
);
}
);
width = 763;
}
);
unicode = 81;
},
{
color = 6;
glyphname = R;
kernLeft = H;
kernRight = R;
layers = (
{
anchors = (
{
name = bottom;
pos = (318,0);
},
{
name = top;
pos = (318,700);
}
);
layerId = m01;
shapes = (
{
closed = 1;
nodes = (
(184,0,l),
(184,312,l),
(255,312,ls),
(399,312,o),
(456,248,o),
(479,29,cs),
(482,0,l),
(577,0,l),
(574,29,ls),
(552,244,o),
(488,321,o),
(373,355,c),
(370,326,l),
(497,333,o),
(577,405,o),
(577,515,cs),
(577,635,o),
(493,700,o),
(338,700,cs),
(90,700,l),
(90,0,l)
);
},
{
closed = 1;
nodes = (
(184,628,l),
(327,628,ls),
(436,628,o),
(481,593,o),
(481,508,cs),
(481,423,o),
(431,380,o),
(336,380,cs),
(184,380,l)
);
}
);
width = 632;
}
);
unicode = 82;
},
{
color = 6;
glyphname = S;
kernLeft = S;
kernRight = S;
layers = (
{
anchors = (
{
name = bottom;
pos = (291,0);
},
{
name = top;
pos = (291,700);
}
);
layerId = m01;
shapes = (
{
closed = 1;
nodes = (
(443,-10,o),
(535,74,o),
(535,199,cs),
(535,294,o),
(483,352,o),
(361,385,cs),
(258,413,ls),
(182,434,o),
(152,473,o),
(152,522,cs),
(152,587,o),
(201,638,o),
(292,638,cs),
(379,638,o),
(421,593,o),
(433,524,c),
(523,524,l),
(515,638,o),
(436,710,o),
(298,710,cs),
(149,710,o),
(60,624,o),
(60,515,cs),
(60,429,o),
(105,364,o),
(216,332,cs),
(344,295,ls),
(409,276,o),
(438,245,o),
(438,190,cs),
(438,112,o),
(382,62,o),
(293,62,cs),
(196,62,o),
(144,114,o),
(140,205,c),
(47,205,l),
(53,64,o),
(142,-10,o),
(291,-10,cs)
);
}
);
width = 583;
}
);
unicode = 83;
},
{
color = 6;
glyphname = Germandbls;
kernLeft = H;
layers = (
{
anchors = (
{
name = bottom;
pos = (279,0);
},
{
name = top;
pos = (279,700);
}
);
layerId = m01;
shapes = (
{
closed = 1;
nodes = (
(376,376,l),
(588,602,l),
(588,668,l),
(545,658,l),
(322,420,l),
(322,336,l)
);
},
{
closed = 1;
nodes = (
(363,0,l),
(365,72,l),
(262,72,l),
(262,0,l)
);
},
{
closed = 1;
nodes = (
(182,0,l),
(182,642,l),
(90,642,l),
(90,0,l)
);
},
{
closed = 1;
nodes = (
(525,0,o),
(615,84,o),
(615,204,c),
(518,204,l),
(518,123,o),
(464,72,o),
(365,72,c),
(363,0,l)
);
},
{
closed = 1;
nodes = (
(365,336,l),
(363,408,l),
(352,408,l),
(322,336,l)
);
},
{
closed = 1;
nodes = (
(615,204,l),
(615,324,o),
(525,408,o),
(363,408,c),
(365,336,l),
(464,336,o),
(518,285,o),
(518,204,c)
);
},
{
closed = 1;
nodes = (
(588,628,l),
(588,700,l),
(90,700,l),
(90,628,l)
);
}
);
width = 663;
}
);
unicode = 7838;
},
{
color = 6;
glyphname = T;
kernLeft = T;
kernRight = T;
layers = (
{
anchors = (
{
name = bottom;
pos = (282,0);
},
{
name = center;
pos = (282,350);
},
{
name = top;
pos = (282,700);
}
);
layerId = m01;
shapes = (
{
closed = 1;
nodes = (
(329,0,l),
(329,700,l),
(235,700,l),
(235,0,l)
);
},
{
closed = 1;
nodes = (
(552,628,l),
(552,700,l),
(12,700,l),
(12,628,l)
);
}
);
width = 564;
}
);
unicode = 84;
},
{
color = 3;
glyphname = Tcedilla;
kernLeft = T;
kernRight = T;
layers = (
{
anchors = (
{
name = _bottom;
pos = (282,0);
}
);
layerId = m01;
shapes = (
{
closed = 1;
nodes = (
(313,-257,o),
(373,-235,o),
(373,-160,cs),
(373,-89,o),
(314,-70,o),
(285,-70,cs),
(277,-70,l),
(329,0,l),
(274,0,l),
(208,-97,l),
(222,-122,l),
(233,-120,o),
(246,-119,o),
(258,-119,cs),
(279,-119,o),
(307,-126,o),
(307,-160,cs),
(307,-189,o),
(289,-205,o),
(247,-205,cs),
(230,-205,o),
(204,-200,o),
(195,-197,c),
(195,-249,l),
(210,-254,o),
(232,-257,o),
(252,-257,cs)
);
},
{
ref = T;
}
);
width = 564;
}
);
unicode = 354;
},
{
color = 6;
glyphname = U;
kernLeft = U;
kernRight = U;
layers = (
{
anchors = (
{
name = bottom;
pos = (345,0);
},
{
name = ogonek;
pos = (431,0);
},
{
name = top;
pos = (345,700);
},
{
name = topright;
pos = (682,700);
}
);
layerId = m01;
shapes = (
{
closed = 1;
nodes = (
(529,-10,o),
(607,106,o),
(607,260,cs),
(607,700,l),
(513,700,l),
(513,270,ls),
(513,154,o),
(471,65,o),
(345,65,cs),
(219,65,o),
(177,154,o),
(177,270,cs),
(177,700,l),
(83,700,l),
(83,260,ls),
(83,106,o),
(161,-10,o),
(345,-10,cs)
);
}
);
width = 690;
}
);
unicode = 85;
},
{
color = 6;
glyphname = V;
kernLeft = V;
kernRight = V;
layers = (
{
anchors = (
{
name = bottom;
pos = (319,0);
},
{
name = top;
pos = (319,700);
}
);
layerId = m01;
shapes = (
{
closed = 1;
nodes = (
(532,700,l),
(319,80,l),
(112,700,l),
(12,700,l),
(258,0,l),
(379,0,l),
(626,700,l)
);
}
);
width = 638;
}
);
unicode = 86;
},
{
color = 6;
glyphname = W;
kernLeft = W;
kernRight = W;
layers = (
{
anchors = (
{
name = bottom;
pos = (474,0);
},
{
name = top;
pos = (474,700);
}
);
guides = (
{
pos = (-21,494);
showMeasurement = 1;
},
{
pos = (-8,190);
showMeasurement = 1;
}
);
layerId = m01;
shapes = (
{
closed = 1;
nodes = (
(330,0,l),
(483,645,l),
(462,645,l),
(618,0,l),
(744,0,l),
(928,700,l),
(837,700,l),
(681,86,l),
(532,700,l),
(415,700,l),
(270,86,l),
(119,700,l),
(21,700,l),
(206,0,l)
);
}
);
width = 949;
}
);
unicode = 87;
},
{
color = 6;
glyphname = X;
layers = (
{
anchors = (
{
name = bottom;
pos = (298,0);
},
{
name = top;
pos = (298,700);
}
);
guides = (
{
angle = 90;
pos = (587,200);
}
);
layerId = m01;
shapes = (
{
closed = 1;
nodes = (
(575,0,l),
(127,700,l),
(21,700,l),
(469,0,l)
);
},
{
closed = 1;
nodes = (
(115,0,l),
(309,305,l),
(258,376,l),
(14,0,l)
);
},
{
closed = 1;
nodes = (
(582,700,l),
(481,700,l),
(288,396,l),
(340,326,l)
);
}
);
width = 596;
}
);
unicode = 88;
},
{
color = 6;
glyphname = Y;
kernLeft = Y;
kernRight = Y;
layers = (
{
anchors = (
{
name = bottom;
pos = (291,0);
},
{
name = top;
pos = (291,700);
},
{
name = topleft;
pos = (24,700);
}
);
layerId = m01;
shapes = (
{
closed = 1;
nodes = (
(338,0,l),
(338,286,l),
(573,700,l),
(474,700,l),
(294,371,l),
(112,700,l),
(9,700,l),
(244,286,l),
(244,0,l)
);
}
);
width = 582;
}
);
unicode = 89;
},
{
color = 6;
glyphname = Z;
kernLeft = Z;
kernRight = Z;
layers = (
{
anchors = (
{
name = bottom;
pos = (279,0);
},
{
name = center;
pos = (279,350);
},
{
name = top;
pos = (279,700);
}
);
layerId = m01;
shapes = (
{
closed = 1;
nodes = (
(519,0,l),
(519,72,l),
(151,72,l),
(519,638,l),
(519,700,l),
(39,700,l),
(39,628,l),
(407,628,l),
(39,62,l),
(39,0,l)
);
}
);
width = 558;
}
);
unicode = 90;
},
{
color = 6;
glyphname = T.alt;
kernLeft = T;
kernRight = T;
layers = (
{
anchors = (
{
name = bottom;
pos = (282,0);
},
{
name = center;
pos = (282,350);
},
{
name = top;
pos = (282,700);
}
);
layerId = m01;
shapes = (
{
closed = 1;
nodes = (
(329,0,l),
(329,700,l),
(235,700,l),
(235,0,l)
);
},
{
closed = 1;
nodes = (
(552,628,l),
(552,700,l),
(12,700,l),
(12,628,l)
);
}
);
width = 564;
}
);
},
{
color = 3;
glyphname = Tcedilla.alt;
kernLeft = T;
kernRight = T;
layers = (
{
anchors = (
{
name = _bottom;
pos = (282,0);
}
);
layerId = m01;
shapes = (
{
closed = 1;
nodes = (
(313,-257,o),
(373,-235,o),
(373,-160,cs),
(373,-89,o),
(314,-70,o),
(285,-70,cs),
(277,-70,l),
(329,0,l),
(274,0,l),
(208,-97,l),
(222,-122,l),
(233,-120,o),
(246,-119,o),
(258,-119,cs),
(279,-119,o),
(307,-126,o),
(307,-160,cs),
(307,-189,o),
(289,-205,o),
(247,-205,cs),
(230,-205,o),
(204,-200,o),
(195,-197,c),
(195,-249,l),
(210,-254,o),
(232,-257,o),
(252,-257,cs)
);
},
{
ref = T.alt;
}
);
width = 564;
}
);
},
{
color = 6;
glyphname = a;
kernLeft = a;
kernRight = a;
layers = (
{
anchors = (
{
name = bottom;
pos = (278,0);
},
{
name = ogonek;
pos = (466,0);
},
{
name = top;
pos = (261,520);
}
);
layerId = m01;
shapes = (
{
closed = 1;
nodes = (
(305,-10,o),
(372,31,o),
(399,101,c),
(385,95,l),
(385,0,l),
(466,0,l),
(466,339,ls),
(466,462,o),
(394,530,o),
(265,530,cs),
(143,530,o),
(60,460,o),
(57,365,c),
(145,365,l),
(147,421,o),
(194,460,o),
(267,460,cs),
(337,460,o),
(381,425,o),
(381,355,cs),
(381,211,ls),
(381,117,o),
(328,60,o),
(243,60,cs),
(181,60,o),
(145,89,o),
(145,139,cs),
(145,212,o),
(231,250,o),
(429,265,c),
(426,329,l),
(166,305,o),
(57,247,o),
(57,135,cs),
(57,48,o),
(122,-10,o),
(220,-10,cs)
);
}
);
width = 541;
}
);
unicode = 97;
},
{
color = 6;
glyphname = ae;
kernLeft = a;
kernRight = e;
layers = (
{
anchors = (
{
name = bottom;
pos = (427,0);
},
{
name = top;
pos = (427,520);
}
);
layerId = m01;
shapes = (
{
closed = 1;
nodes = (
(387,325,l),
(154,298,o),
(57,240,o),
(57,135,cs),
(57,49,o),
(122,-10,o),
(220,-10,cs),
(306,-10,o),
(388,33,o),
(420,124,c),
(394,122,l),
(432,38,o),
(506,-10,o),
(608,-10,cs),
(726,-10,o),
(817,67,o),
(820,170,c),
(730,170,l),
(725,101,o),
(681,60,o),
(607,60,cs),
(513,60,o),
(461,125,o),
(455,244,c),
(827,244,l),
(827,277,ls),
(827,436,o),
(745,530,o),
(602,530,cs),
(521,530,o),
(449,493,o),
(418,428,c),
(446,433,l),
(416,493,o),
(364,530,o),
(265,530,cs),
(143,530,o),
(60,460,o),
(57,365,c),
(145,365,l),
(147,420,o),
(193,460,o),
(267,460,cs),
(338,460,o),
(381,425,o),
(381,355,cs),
(381,317,l)
);
},
{
closed = 1;
nodes = (
(473,409,o),
(522,460,o),
(600,460,cs),
(684,460,o),
(731,405,o),
(737,314,c),
(459,314,l)
);
},
{
closed = 1;
nodes = (
(381,266,l),
(381,211,ls),
(381,116,o),
(328,60,o),
(243,60,cs),
(181,60,o),
(145,89,o),
(145,139,cs),
(145,206,o),
(217,243,o),
(384,261,c)
);
}
);
width = 873;
}
);
unicode = 230;
},
{
color = 6;
glyphname = b;
kernLeft = h;
kernRight = b;
layers = (
{
anchors = (
{
name = bottom;
pos = (299,0);
},
{
name = top;
pos = (299,800);
}
);
layerId = m01;
shapes = (
{
closed = 1;
nodes = (
(475,-10,o),
(553,107,o),
(553,261,cs),
(553,412,o),
(475,530,o),
(334,530,cs),
(251,530,o),
(189,493,o),
(157,423,c),
(172,405,l),
(172,700,l),
(82,700,l),
(82,0,l),
(167,0,l),
(167,123,l),
(153,106,l),
(184,30,o),
(248,-10,o),
(334,-10,cs)
);
},
{
closed = 1;
nodes = (
(228,60,o),
(166,115,o),
(166,260,cs),
(166,405,o),
(228,460,o),
(313,460,cs),
(417,460,o),
(460,377,o),
(460,261,cs),
(460,134,o),
(412,60,o),
(313,60,cs)
);
}
);
width = 598;
}
);
unicode = 98;
},
{
color = 6;
glyphname = c;
kernLeft = o;
kernRight = c;
layers = (
{
anchors = (
{
name = bottom;
pos = (293,0);
},
{
name = top;
pos = (281,520);
}
);
layerId = m01;
shapes = (
{
closed = 1;
nodes = (
(400,-10,o),
(500,58,o),
(503,170,c),
(413,170,l),
(408,95,o),
(356,60,o),
(291,60,cs),
(186,60,o),
(140,141,o),
(140,260,cs),
(140,379,o),
(188,460,o),
(293,460,cs),
(357,460,o),
(408,427,o),
(412,357,c),
(501,357,l),
(500,464,o),
(402,530,o),
(293,530,cs),
(134,530,o),
(45,416,o),
(45,260,cs),
(45,104,o),
(132,-10,o),
(291,-10,cs)
);
}
);
width = 544;
}
);
unicode = 99;
},
{
color = 6;
glyphname = d;
kernLeft = d;
kernRight = d;
layers = (
{
anchors = (
{
name = bottom;
pos = (299,0);
},
{
name = center;
pos = (299,260);
},
{
name = top;
pos = (299,700);
},
{
name = topright;
pos = (574,520);
}
);
layerId = m01;
shapes = (
{
closed = 1;
nodes = (
(350,-10,o),
(414,30,o),
(445,106,c),
(431,123,l),
(431,0,l),
(516,0,l),
(516,700,l),
(426,700,l),
(426,405,l),
(441,423,l),
(409,493,o),
(347,530,o),
(264,530,cs),
(123,530,o),
(45,412,o),
(45,261,cs),
(45,107,o),
(123,-10,o),
(264,-10,cs)
);
},
{
closed = 1;
nodes = (
(186,60,o),
(138,134,o),
(138,261,cs),
(138,377,o),
(181,460,o),
(285,460,cs),
(370,460,o),
(432,405,o),
(432,260,cs),
(432,115,o),
(370,60,o),
(285,60,cs)
);
}
);
width = 598;
}
);
unicode = 100;
},
{
color = 3;
glyphname = dcaron;
kernLeft = d;
kernRight = dcaron;
layers = (
{
layerId = m01;
shapes = (
{
closed = 1;
nodes = (
(630,507,o),
(685,561,o),
(685,632,cs),
(685,676,o),
(658,710,o),
(614,710,cs),
(580,710,o),
(556,686,o),
(556,656,cs),
(556,623,o),
(580,600,o),
(611,600,cs),
(632,600,o),
(646,608,o),
(658,623,c),
(635,611,l),
(634,575,o),
(600,551,o),
(560,541,c),
(560,497,l)
);
},
{
ref = d;
}
);
width = 621;
}
);
unicode = 271;
},
{
color = 3;
glyphname = dcroat;
kernLeft = d;
kernRight = d;
layers = (
{
layerId = m01;
shapes = (
{
closed = 1;
nodes = (
(572,566,l),
(572,630,l),
(304,630,l),
(304,566,l)
);
},
{
ref = d;
}
);
width = 596;
}
);
unicode = 273;
},
{
color = 6;
glyphname = eth;
layers = (
{
layerId = m01;
shapes = (
{
closed = 1;
nodes = (
(412,-10,o),
(490,105,o),
(490,301,cs),
(490,453,o),
(434,586,o),
(288,700,c),
(196,700,l),
(362,563,o),
(403,471,o),
(413,343,c),
(422,335,l),
(402,429,o),
(335,477,o),
(246,477,cs),
(125,477,o),
(44,390,o),
(44,237,cs),
(44,81,o),
(132,-10,o),
(262,-10,cs)
);
},
{
closed = 1;
nodes = (
(188,60,o),
(137,122,o),
(137,236,cs),
(137,350,o),
(184,407,o),
(260,407,cs),
(339,407,o),
(395,346,o),
(395,239,cs),
(395,124,o),
(343,60,o),
(265,60,cs)
);
},
{
closed = 1;
nodes = (
(511,630,l),
(494,688,l),
(186,568,l),
(203,510,l)
);
}
);
width = 543;
}
);
unicode = 240;
},
{
color = 6;
glyphname = e;
kernLeft = o;
kernRight = e;
layers = (
{
anchors = (
{
name = bottom;
pos = (289,0);
},
{
name = ogonek;
pos = (359,0);
},
{
name = top;
pos = (281,520);
}
);
layerId = m01;
shapes = (
{
closed = 1;
nodes = (
(409,-10,o),
(499,67,o),
(502,170,c),
(412,170,l),
(407,101,o),
(362,60,o),
(290,60,cs),
(191,60,o),
(136,131,o),
(136,260,cs),
(136,389,o),
(191,460,o),
(284,460,cs),
(366,460,o),
(413,405,o),
(419,314,c),
(124,314,l),
(124,244,l),
(509,244,l),
(509,277,ls),
(509,436,o),
(427,530,o),
(284,530,cs),
(140,530,o),
(44,425,o),
(44,260,cs),
(44,95,o),
(139,-10,o),
(290,-10,cs)
);
}
);
width = 555;
}
);
unicode = 101;
},
{
color = 6;
glyphname = f;
kernLeft = f;
kernRight = f;
layers = (
{
anchors = (
{
name = bottom;
pos = (177,0);
},
{
name = top;
pos = (177,800);
}
);
layerId = m01;
shapes = (
{
closed = 1;
nodes = (
(207,0,l),
(207,557,ls),
(207,625,o),
(225,630,o),
(274,630,cs),
(345,630,l),
(345,700,l),
(245,700,ls),
(157,700,o),
(117,673,o),
(117,564,cs),
(117,0,l)
);
},
{
closed = 1;
nodes = (
(345,450,l),
(345,520,l),
(17,520,l),
(17,450,l)
);
}
);
width = 358;
}
);
unicode = 102;
},
{
color = 6;
glyphname = g;
kernLeft = g;
kernRight = u;
layers = (
{
anchors = (
{
name = bottom;
pos = (299,-257);
},
{
name = top;
pos = (287,520);
}
);
guides = (
{
angle = 90;
pos = (453,348);
}
);
layerId = m01;
shapes = (
{
closed = 1;
nodes = (
(347,-10,o),
(409,27,o),
(441,97,c),
(426,115,l),
(426,0,l),
(516,-8,l),
(516,520,l),
(431,520,l),
(431,397,l),
(445,414,l),
(414,490,o),
(350,530,o),
(264,530,cs),
(123,530,o),
(45,413,o),
(45,259,cs),
(45,108,o),
(123,-10,o),
(264,-10,cs)
);
},
{
closed = 1;
nodes = (
(171,-84,l),
(171,-59,l),
(79,-59,l),
(79,-84,l)
);
},
{
closed = 1;
nodes = (
(416,-257,o),
(516,-199,o),
(516,-8,c),
(426,0,l),
(426,-125,o),
(383,-187,o),
(283,-187,cs),
(201,-187,o),
(171,-145,o),
(171,-84,c),
(79,-84,l),
(80,-186,o),
(140,-257,o),
(284,-257,cs)
);
},
{
closed = 1;
nodes = (
(181,60,o),
(138,143,o),
(138,259,cs),
(138,386,o),
(186,460,o),
(285,460,cs),
(370,460,o),
(432,405,o),
(432,260,cs),
(432,115,o),
(370,60,o),
(285,60,cs)
);
}
);
width = 598;
}
);
unicode = 103;
},
{
color = 6;
glyphname = h;
kernLeft = h;
kernRight = n;
layers = (
{
anchors = (
{
name = bottom;
pos = (296,0);
},
{
name = center;
pos = (296,400);
},
{
name = top;
pos = (127,700);
}
);
layerId = m01;
shapes = (
{
closed = 1;
nodes = (
(172,0,l),
(172,276,ls),
(172,410,o),
(237,457,o),
(311,457,cs),
(377,457,o),
(424,424,o),
(424,320,cs),
(424,0,l),
(514,0,l),
(514,340,ls),
(514,472,o),
(441,530,o),
(328,530,cs),
(261,530,o),
(190,501,o),
(157,423,c),
(172,415,l),
(172,700,l),
(82,700,l),
(82,0,l)
);
}
);
width = 590;
}
);
unicode = 104;
},
{
color = 3;
glyphname = hbar;
kernLeft = h;
kernRight = n;
layers = (
{
layerId = m01;
shapes = (
{
closed = 1;
nodes = (
(282,566,l),
(282,630,l),
(14,630,l),
(14,566,l)
);
},
{
pos = (-8,0);
ref = h;
}
);
width = 582;
}
);
unicode = 295;
},
{
color = 6;
glyphname = idotless;
kernLeft = i;
kernRight = i;
layers = (
{
anchors = (
{
name = bottom;
pos = (127,0);
},
{
name = ogonek;
pos = (172,0);
},
{
name = top;
pos = (127,520);
}
);
layerId = m01;
shapes = (
{
closed = 1;
nodes = (
(172,0,l),
(172,520,l),
(82,520,l),
(82,0,l)
);
}
);
width = 254;
}
);
unicode = 305;
},
{
color = 6;
glyphname = jdotless;
kernLeft = i;
kernRight = i;
layers = (
{
anchors = (
{
name = bottom;
pos = (127,-257);
},
{
name = top;
pos = (127,520);
}
);
layerId = m01;
shapes = (
{
closed = 1;
nodes = (
(44,-247,ls),
(132,-247,o),
(172,-220,o),
(172,-111,cs),
(172,520,l),
(82,520,l),
(82,-104,ls),
(82,-172,o),
(64,-177,o),
(15,-177,cs),
(-46,-177,l),
(-46,-247,l)
);
}
);
width = 254;
}
);
unicode = 567;
},
{
color = 6;
glyphname = k;
kernLeft = h;
kernRight = k;
layers = (
{
anchors = (
{
name = bottom;
pos = (282,0);
},
{
name = top;
pos = (262,800);
}
);
layerId = m01;
shapes = (
{
closed = 1;
nodes = (
(515,520,l),
(406,520,l),
(152,232,l),
(162,134,l)
);
},
{
closed = 1;
nodes = (
(172,0,l),
(172,700,l),
(82,700,l),
(82,0,l)
);
},
{
closed = 1;
nodes = (
(515,0,l),
(317,310,l),
(233,280,l),
(409,0,l)
);
}
);
width = 529;
}
);
unicode = 107;
},
{
color = 6;
glyphname = l;
kernLeft = l;
kernRight = l;
layers = (
{
anchors = (
{
name = bottom;
pos = (127,0);
},
{
name = center;
pos = (127,400);
},
{
name = top;
pos = (127,700);
},
{
name = topright;
pos = (230,700);
}
);
layerId = m01;
shapes = (
{
closed = 1;
nodes = (
(172,0,l),
(172,700,l),
(82,700,l),
(82,0,l)
);
}
);
width = 254;
}
);
unicode = 108;
},
{
color = 3;
glyphname = lcaron;
kernLeft = l;
kernRight = dcaron;
layers = (
{
layerId = m01;
shapes = (
{
closed = 1;
nodes = (
(298,507,o),
(353,561,o),
(353,632,cs),
(353,676,o),
(326,710,o),
(282,710,cs),
(248,710,o),
(224,686,o),
(224,656,cs),
(224,623,o),
(248,600,o),
(279,600,cs),
(300,600,o),
(314,608,o),
(326,623,c),
(303,611,l),
(302,575,o),
(268,551,o),
(228,541,c),
(228,497,l)
);
},
{
ref = l;
}
);
width = 289;
}
);
unicode = 318;
},
{
color = 3;
glyphname = lslash;
layers = (
{
layerId = m01;
shapes = (
{
closed = 1;
nodes = (
(281,396,l),
(281,460,l),
(35,360,l),
(35,296,l)
);
},
{
pos = (33,0);
ref = l;
}
);
width = 312;
}
);
unicode = 322;
},
{
color = 6;
glyphname = m;
kernLeft = n;
kernRight = n;
layers = (
{
anchors = (
{
name = bottom;
pos = (443,0);
},
{
name = top;
pos = (443,520);
}
);
layerId = m01;
shapes = (
{
closed = 1;
nodes = (
(490,0,l),
(490,301,ls),
(490,420,o),
(555,457,o),
(617,457,cs),
(671,457,o),
(718,424,o),
(718,320,cs),
(718,0,l),
(808,0,l),
(808,340,ls),
(808,472,o),
(735,530,o),
(634,530,cs),
(579,530,o),
(508,501,o),
(475,423,c),
(485,415,l),
(485,425,l),
(400,425,l),
(400,0,l)
);
},
{
closed = 1;
nodes = (
(172,0,l),
(172,301,ls),
(172,420,o),
(237,457,o),
(299,457,cs),
(353,457,o),
(400,424,o),
(400,320,cs),
(400,0,l),
(490,0,l),
(490,340,ls),
(490,472,o),
(417,530,o),
(316,530,cs),
(261,530,o),
(190,501,o),
(157,423,c),
(167,415,l),
(167,520,l),
(82,520,l),
(82,0,l)
);
}
);
width = 884;
}
);
unicode = 109;
},
{
color = 6;
glyphname = n;
kernLeft = n;
kernRight = n;
layers = (
{
anchors = (
{
name = bottom;
pos = (305,0);
},
{
name = top;
pos = (301,520);
}
);
layerId = m01;
shapes = (
{
closed = 1;
nodes = (
(172,0,l),
(172,301,ls),
(172,420,o),
(237,457,o),
(311,457,cs),
(377,457,o),
(424,424,o),
(424,320,cs),
(424,0,l),
(514,0,l),
(514,340,ls),
(514,472,o),
(441,530,o),
(328,530,cs),
(261,530,o),
(190,501,o),
(157,423,c),
(167,415,l),
(167,520,l),
(82,520,l),
(82,0,l)
);
}
);
width = 590;
}
);
unicode = 110;
},
{
color = 6;
glyphname = eng;
kernLeft = n;
kernRight = n;
layers = (
{
layerId = m01;
shapes = (
{
closed = 1;
nodes = (
(386,-247,ls),
(474,-247,o),
(514,-220,o),
(514,-111,cs),
(514,340,ls),
(514,472,o),
(441,530,o),
(328,530,cs),
(261,530,o),
(190,501,o),
(157,423,c),
(167,415,l),
(167,520,l),
(82,520,l),
(82,0,l),
(172,0,l),
(172,301,ls),
(172,420,o),
(237,457,o),
(311,457,cs),
(377,457,o),
(424,424,o),
(424,320,cs),
(424,-104,ls),
(424,-172,o),
(406,-177,o),
(357,-177,cs),
(296,-177,l),
(296,-247,l)
);
}
);
width = 590;
}
);
metricLeft = n;
metricRight = n;
unicode = 331;
},
{
color = 6;
glyphname = o;
kernLeft = o;
kernRight = o;
layers = (
{
anchors = (
{
name = bottom;
pos = (289,0);
},
{
name = center;
pos = (289,260);
},
{
name = ogonek;
pos = (518,10);
},
{
name = top;
pos = (289,520);
},
{
name = topright;
pos = (555,520);
}
);
layerId = m01;
shapes = (
{
closed = 1;
nodes = (
(440,-10,o),
(534,104,o),
(534,260,cs),
(534,416,o),
(440,530,o),
(289,530,cs),
(138,530,o),
(44,416,o),
(44,260,cs),
(44,104,o),
(138,-10,o),
(289,-10,cs)
);
},
{
closed = 1;
nodes = (
(192,60,o),
(139,141,o),
(139,260,cs),
(139,379,o),
(192,460,o),
(289,460,cs),
(386,460,o),
(439,379,o),
(439,260,cs),
(439,141,o),
(386,60,o),
(289,60,cs)
);
}
);
width = 578;
}
);
unicode = 111;
},
{
color = 3;
glyphname = oslash;
kernLeft = o;
kernRight = o;
layers = (
{
anchors = (
{
name = top;
pos = (302,520);
}
);
layerId = m01;
shapes = (
{
closed = 1;
nodes = (
(126,-48,l),
(516,570,l),
(450,570,l),
(60,-48,l)
);
},
{
pos = (0,1);
ref = o;
}
);
width = 578;
}
);
unicode = 248;
},
{
color = 6;
glyphname = oe;
kernLeft = o;
kernRight = e;
layers = (
{
anchors = (
{
name = bottom;
pos = (303,0);
},
{
name = center;
pos = (289,260);
},
{
name = ogonek;
pos = (518,10);
},
{
name = top;
pos = (303,520);
},
{
name = topright;
pos = (555,520);
}
);
layerId = m01;
shapes = (
{
closed = 1;
nodes = (
(411,-10,o),
(496,64,o),
(524,175,c),
(524,344,l),
(496,455,o),
(411,530,o),
(289,530,cs),
(138,530,o),
(44,416,o),
(44,260,cs),
(44,104,o),
(138,-10,o),
(289,-10,cs)
);
},
{
closed = 1;
nodes = (
(192,60,o),
(139,141,o),
(139,260,cs),
(139,379,o),
(192,460,o),
(289,460,cs),
(386,460,o),
(439,379,o),
(439,260,cs),
(439,141,o),
(386,60,o),
(289,60,cs)
);
},
{
closed = 1;
nodes = (
(803,-10,o),
(893,67,o),
(896,170,c),
(806,170,l),
(801,101,o),
(756,60,o),
(684,60,cs),
(587,60,o),
(530,131,o),
(530,260,cs),
(530,389,o),
(587,460,o),
(678,460,cs),
(760,460,o),
(807,405,o),
(813,314,c),
(516,314,l),
(516,244,l),
(903,244,l),
(903,277,ls),
(903,436,o),
(821,530,o),
(679,530,cs),
(566,530,o),
(484,467,o),
(451,354,c),
(445,183,l),
(473,67,o),
(559,-10,o),
(685,-10,cs)
);
}
);
width = 949;
}
);
unicode = 339;
},
{
color = 6;
glyphname = p;
kernLeft = n;
kernRight = b;
layers = (
{
anchors = (
{
name = bottom;
pos = (299,0);
},
{
name = top;
pos = (299,520);
}
);
layerId = m01;
shapes = (
{
closed = 1;
nodes = (
(172,-248,l),
(172,115,l),
(157,97,l),
(189,27,o),
(251,-10,o),
(334,-10,cs),
(475,-10,o),
(553,108,o),
(553,259,cs),
(553,413,o),
(475,530,o),
(334,530,cs),
(248,530,o),
(184,490,o),
(153,414,c),
(167,397,l),
(167,520,l),
(82,520,l),
(82,-248,l)
);
},
{
closed = 1;
nodes = (
(228,60,o),
(166,115,o),
(166,260,cs),
(166,405,o),
(228,460,o),
(313,460,cs),
(412,460,o),
(460,386,o),
(460,259,cs),
(460,143,o),
(417,60,o),
(313,60,cs)
);
}
);
width = 598;
}
);
unicode = 112;
},
{
color = 6;
glyphname = thorn;
kernLeft = h;
kernRight = b;
layers = (
{
anchors = (
{
name = bottom;
pos = (304,0);
},
{
name = top;
pos = (304,520);
}
);
layerId = m01;
shapes = (
{
closed = 1;
nodes = (
(172,-248,l),
(172,115,l),
(157,97,l),
(189,27,o),
(251,-10,o),
(334,-10,cs),
(475,-10,o),
(553,108,o),
(553,259,cs),
(553,413,o),
(475,530,o),
(334,530,cs),
(248,530,o),
(184,490,o),
(153,414,c),
(172,397,l),
(172,700,l),
(82,700,l),
(82,-248,l)
);
},
{
closed = 1;
nodes = (
(228,60,o),
(166,115,o),
(166,260,cs),
(166,405,o),
(228,460,o),
(313,460,cs),
(412,460,o),
(460,386,o),
(460,259,cs),
(460,143,o),
(417,60,o),
(313,60,cs)
);
}
);
width = 598;
}
);
unicode = 254;
},
{
color = 6;
glyphname = q;
kernLeft = d;
kernRight = u;
layers = (
{
anchors = (
{
name = bottom;
pos = (299,0);
},
{
name = top;
pos = (299,520);
}
);
layerId = m01;
shapes = (
{
closed = 1;
nodes = (
(516,-248,l),
(516,520,l),
(431,520,l),
(431,397,l),
(445,414,l),
(414,490,o),
(350,530,o),
(264,530,cs),
(123,530,o),
(45,413,o),
(45,259,cs),
(45,108,o),
(123,-10,o),
(264,-10,cs),
(347,-10,o),
(409,27,o),
(441,97,c),
(426,115,l),
(426,-248,l)
);
},
{
closed = 1;
nodes = (
(181,60,o),
(138,143,o),
(138,259,cs),
(138,386,o),
(186,460,o),
(285,460,cs),
(370,460,o),
(432,405,o),
(432,260,cs),
(432,115,o),
(370,60,o),
(285,60,cs)
);
}
);
width = 598;
}
);
unicode = 113;
},
{
color = 6;
glyphname = r;
kernLeft = n;
kernRight = r;
layers = (
{
anchors = (
{
name = bottom;
pos = (129,0);
},
{
name = top;
pos = (214,520);
}
);
layerId = m01;
shapes = (
{
closed = 1;
nodes = (
(172,0,l),
(172,282,ls),
(172,398,o),
(207,450,o),
(288,450,cs),
(343,450,l),
(343,525,l),
(293,525,ls),
(231,525,o),
(184,496,o),
(167,431,c),
(167,520,l),
(82,520,l),
(82,0,l)
);
}
);
width = 362;
}
);
unicode = 114;
},
{
color = 6;
glyphname = s;
kernLeft = s;
kernRight = s;
layers = (
{
anchors = (
{
name = bottom;
pos = (241,0);
},
{
name = top;
pos = (243,520);
}
);
layerId = m01;
shapes = (
{
closed = 1;
nodes = (
(363,-10,o),
(439,53,o),
(439,153,cs),
(439,225,o),
(404,265,o),
(311,289,cs),
(212,315,ls),
(176,324,o),
(140,340,o),
(140,388,cs),
(140,433,o),
(179,462,o),
(243,462,cs),
(313,462,o),
(342,426,o),
(346,382,c),
(436,382,l),
(433,460,o),
(375,530,o),
(244,530,cs),
(128,530,o),
(51,464,o),
(51,380,cs),
(51,298,o),
(95,260,o),
(183,237,cs),
(285,210,ls),
(330,198,o),
(350,173,o),
(350,136,cs),
(350,84,o),
(311,58,o),
(246,58,cs),
(178,58,o),
(134,90,o),
(134,148,c),
(40,148,l),
(46,37,o),
(129,-10,o),
(245,-10,cs)
);
}
);
width = 484;
}
);
unicode = 115;
},
{
color = 6;
glyphname = germandbls;
kernLeft = f;
layers = (
{
anchors = (
{
name = bottom;
pos = (341,0);
},
{
name = top;
pos = (341,520);
}
);
guides = (
{
pos = (56,148);
}
);
layerId = m01;
shapes = (
{
closed = 1;
nodes = (
(541,-10,o),
(618,52,o),
(618,141,cs),
(618,214,o),
(567,249,o),
(490,292,cs),
(452,313,ls),
(420,331,o),
(394,346,o),
(394,375,cs),
(394,396,o),
(410,414,o),
(425,432,cs),
(454,469,o),
(495,501,o),
(495,566,cs),
(495,630,o),
(449,710,o),
(313,710,cs),
(217,710,o),
(117,673,o),
(117,534,cs),
(117,520,l),
(17,520,l),
(17,450,l),
(117,450,l),
(117,0,l),
(207,0,l),
(207,527,ls),
(207,601,o),
(243,640,o),
(312,640,cs),
(371,640,o),
(406,611,o),
(406,561,cs),
(406,521,o),
(383,503,o),
(363,479,cs),
(338,449,o),
(308,420,o),
(308,368,cs),
(308,316,o),
(341,280,o),
(396,250,cs),
(456,217,ls),
(505,190,o),
(529,173,o),
(529,135,cs),
(529,83,o),
(489,58,o),
(447,58,cs),
(406,58,o),
(359,80,o),
(359,139,c),
(268,139,l),
(269,27,o),
(357,-10,o),
(446,-10,cs)
);
}
);
width = 641;
}
);
unicode = 223;
},
{
color = 6;
glyphname = t;
kernLeft = t;
kernRight = t;
layers = (
{
anchors = (
{
name = bottom;
pos = (220,0);
},
{
name = center;
pos = (179,260);
},
{
name = top;
pos = (179,520);
},
{
name = topright;
pos = (330,520);
}
);
layerId = m01;
shapes = (
{
closed = 1;
nodes = (
(345,0,l),
(345,70,l),
(274,70,ls),
(225,70,o),
(207,75,o),
(207,143,cs),
(207,649,l),
(117,649,l),
(117,136,ls),
(117,27,o),
(157,0,o),
(245,0,cs)
);
},
{
closed = 1;
nodes = (
(345,450,l),
(345,520,l),
(17,520,l),
(17,450,l)
);
}
);
width = 378;
}
);
unicode = 116;
},
{
color = 3;
glyphname = tcaron;
kernLeft = t;
kernRight = t;
layers = (
{
layerId = m01;
shapes = (
{
closed = 1;
nodes = (
(331,577,o),
(386,631,o),
(386,702,cs),
(386,746,o),
(359,780,o),
(315,780,cs),
(281,780,o),
(257,756,o),
(257,726,cs),
(257,693,o),
(281,670,o),
(312,670,cs),
(333,670,o),
(347,678,o),
(359,693,c),
(336,681,l),
(335,645,o),
(301,621,o),
(261,611,c),
(261,567,l)
);
},
{
ref = t;
}
);
width = 373;
}
);
unicode = 357;
},
{
color = 6;
glyphname = u;
kernLeft = u;
kernRight = u;
layers = (
{
anchors = (
{
name = bottom;
pos = (295,0);
},
{
name = ogonek;
pos = (508,0);
},
{
name = top;
pos = (295,520);
},
{
name = topright;
pos = (566,520);
}
);
layerId = m01;
shapes = (
{
closed = 1;
nodes = (
(329,-10,o),
(400,19,o),
(433,97,c),
(423,105,l),
(423,0,l),
(508,0,l),
(508,520,l),
(418,520,l),
(418,219,ls),
(418,100,o),
(353,63,o),
(279,63,cs),
(213,63,o),
(166,96,o),
(166,200,cs),
(166,520,l),
(76,520,l),
(76,180,ls),
(76,48,o),
(149,-10,o),
(262,-10,cs)
);
}
);
width = 590;
}
);
unicode = 117;
},
{
color = 6;
glyphname = v;
kernLeft = v;
kernRight = v;
layers = (
{
anchors = (
{
name = bottom;
pos = (258,0);
},
{
name = top;
pos = (258,520);
}
);
layerId = m01;
shapes = (
{
closed = 1;
nodes = (
(310,0,l),
(501,520,l),
(410,520,l),
(253,64,l),
(259,65,l),
(108,520,l),
(14,520,l),
(200,0,l)
);
}
);
width = 512;
}
);
unicode = 118;
},
{
color = 6;
glyphname = w;
kernLeft = w;
kernRight = w;
layers = (
{
anchors = (
{
name = bottom;
pos = (378,0);
},
{
name = top;
pos = (378,520);
}
);
layerId = m01;
shapes = (
{
closed = 1;
nodes = (
(276,0,l),
(387,479,l),
(371,479,l),
(481,0,l),
(590,0,l),
(733,520,l),
(645,520,l),
(525,33,l),
(543,33,l),
(432,520,l),
(328,520,l),
(215,33,l),
(233,33,l),
(114,520,l),
(22,520,l),
(165,0,l)
);
}
);
width = 755;
}
);
unicode = 119;
},
{
color = 6;
glyphname = x;
layers = (
{
anchors = (
{
name = bottom;
pos = (257,0);
},
{
name = top;
pos = (257,520);
}
);
layerId = m01;
shapes = (
{
closed = 1;
nodes = (
(117,0,l),
(272,238,l),
(230,240,l),
(390,0,l),
(496,0,l),
(316,262,l),
(489,520,l),
(390,520,l),
(240,286,l),
(280,284,l),
(127,520,l),
(21,520,l),
(195,262,l),
(18,0,l)
);
}
);
width = 512;
}
);
unicode = 120;
},
{
color = 6;
glyphname = y;
kernLeft = y;
kernRight = y;
layers = (
{
anchors = (
{
name = bottom;
pos = (257,0);
},
{
name = top;
pos = (257,520);
}
);
layerId = m01;
shapes = (
{
closed = 1;
nodes = (
(179,-247,l),
(507,520,l),
(414,520,l),
(228,59,l),
(272,58,l),
(108,520,l),
(13,520,l),
(225,-36,l),
(218,47,l),
(82,-247,l)
);
}
);
width = 512;
}
);
unicode = 121;
},
{
color = 6;
glyphname = z;
kernLeft = z;
kernRight = z;
layers = (
{
anchors = (
{
name = bottom;
pos = (226,0);
},
{
name = center;
pos = (226,260);
},
{
name = top;
pos = (226,520);
}
);
layerId = m01;
shapes = (
{
closed = 1;
nodes = (
(410,0,l),
(410,70,l),
(147,70,l),
(410,460,l),
(410,520,l),
(42,520,l),
(42,450,l),
(305,450,l),
(42,60,l),
(42,0,l)
);
}
);
width = 452;
}
);
unicode = 122;
},
{
color = 6;
glyphname = f_f;
kernLeft = f;
kernRight = f;
layers = (
{
anchors = (
{
name = bottom_1;
pos = (177,0);
},
{
name = bottom_2;
pos = (523,0);
},
{
name = caret_1;
pos = (299,0);
},
{
name = top_1;
pos = (177,800);
},
{
name = top_2;
pos = (523,800);
}
);
layerId = m01;
shapes = (
{
closed = 1;
nodes = (
(207,0,l),
(207,557,ls),
(207,625,o),
(225,630,o),
(274,630,cs),
(345,630,l),
(345,700,l),
(245,700,ls),
(157,700,o),
(117,673,o),
(117,564,cs),
(117,0,l)
);
},
{
closed = 1;
nodes = (
(345,450,l),
(345,520,l),
(17,520,l),
(17,450,l)
);
},
{
closed = 1;
nodes = (
(488,0,l),
(488,557,ls),
(488,625,o),
(506,630,o),
(555,630,cs),
(626,630,l),
(626,700,l),
(526,700,ls),
(438,700,o),
(398,673,o),
(398,564,cs),
(398,0,l)
);
},
{
closed = 1;
nodes = (
(626,450,l),
(626,520,l),
(298,520,l),
(298,450,l)
);
}
);
width = 639;
}
);
},
{
color = 6;
glyphname = f_f_i;
kernLeft = f;
kernRight = i;
layers = (
{
anchors = (
{
name = bottom_1;
pos = (177,0);
},
{
name = bottom_2;
pos = (523,0);
},
{
name = bottom_3;
pos = (819,0);
},
{
name = caret_1;
pos = (310,0);
},
{
name = caret_2;
pos = (608,0);
},
{
name = ogonek_2;
pos = (874,0);
},
{
name = top_1;
pos = (177,800);
},
{
name = top_2;
pos = (523,800);
},
{
name = top_3;
pos = (829,700);
}
);
guides = (
{
pos = (601,268);
showMeasurement = 1;
}
);
layerId = m01;
shapes = (
{
closed = 1;
nodes = (
(207,0,l),
(207,557,ls),
(207,625,o),
(225,630,o),
(274,630,cs),
(345,630,l),
(345,700,l),
(245,700,ls),
(157,700,o),
(117,673,o),
(117,564,cs),
(117,0,l)
);
},
{
closed = 1;
nodes = (
(345,450,l),
(345,520,l),
(17,520,l),
(17,450,l)
);
},
{
closed = 1;
nodes = (
(488,0,l),
(488,557,ls),
(488,625,o),
(506,630,o),
(555,630,cs),
(616,630,l),
(616,700,l),
(526,700,ls),
(438,700,o),
(398,673,o),
(398,564,cs),
(398,0,l)
);
},
{
closed = 1;
nodes = (
(718,450,l),
(718,520,l),
(298,520,l),
(298,450,l)
);
},
{
closed = 1;
nodes = (
(769,0,l),
(769,520,l),
(679,520,l),
(679,0,l)
);
},
{
closed = 1;
nodes = (
(756,583,o),
(782,607,o),
(782,642,cs),
(782,676,o),
(756,700,o),
(724,700,cs),
(691,700,o),
(665,676,o),
(665,642,cs),
(665,607,o),
(691,583,o),
(724,583,cs)
);
}
);
width = 851;
}
);
},
{
color = 6;
glyphname = f_i;
kernLeft = f;
kernRight = i;
layers = (
{
anchors = (
{
name = bottom_1;
pos = (177,0);
},
{
name = bottom_2;
pos = (473,0);
},
{
name = caret_1;
pos = (309,0);
},
{
name = ogonek_2;
pos = (528,0);
},
{
name = top_1;
pos = (177,800);
},
{
name = top_2;
pos = (483,700);
}
);
layerId = m01;
shapes = (
{
closed = 1;
nodes = (
(207,0,l),
(207,557,ls),
(207,625,o),
(225,630,o),
(274,630,cs),
(335,630,l),
(335,700,l),
(245,700,ls),
(157,700,o),
(117,673,o),
(117,564,cs),
(117,0,l)
);
},
{
closed = 1;
nodes = (
(437,450,l),
(437,520,l),
(17,520,l),
(17,450,l)
);
},
{
closed = 1;
nodes = (
(488,0,l),
(488,520,l),
(398,520,l),
(398,0,l)
);
},
{
closed = 1;
nodes = (
(475,583,o),
(501,607,o),
(501,642,cs),
(501,676,o),
(475,700,o),
(443,700,cs),
(410,700,o),
(384,676,o),
(384,642,cs),
(384,607,o),
(410,583,o),
(443,583,cs)
);
}
);
width = 570;
}
);
},
{
color = 6;
glyphname = f_t;
kernLeft = f;
kernRight = t;
layers = (
{
anchors = (
{
name = bottom;
pos = (563,0);
},
{
name = caret_1;
pos = (345,0);
},
{
name = center;
pos = (522,260);
},
{
name = top;
pos = (522,520);
},
{
name = topright;
pos = (673,520);
}
);
layerId = m01;
shapes = (
{
closed = 1;
nodes = (
(207,0,l),
(207,557,ls),
(207,625,o),
(225,630,o),
(274,630,cs),
(345,630,l),
(345,700,l),
(245,700,ls),
(157,700,o),
(117,673,o),
(117,564,cs),
(117,0,l)
);
},
{
closed = 1;
nodes = (
(345,450,l),
(345,520,l),
(17,520,l),
(17,450,l)
);
},
{
closed = 1;
nodes = (
(648,0,l),
(648,70,l),
(577,70,ls),
(528,70,o),
(510,75,o),
(510,143,cs),
(510,649,l),
(420,649,l),
(420,136,ls),
(420,27,o),
(460,0,o),
(548,0,cs)
);
},
{
closed = 1;
nodes = (
(648,450,l),
(648,520,l),
(320,520,l),
(320,450,l)
);
}
);
width = 681;
}
);
},
{
color = 6;
glyphname = t_t;
kernLeft = t;
kernRight = t;
layers = (
{
anchors = (
{
name = bottom;
pos = (563,0);
},
{
name = caret_1;
pos = (379,0);
},
{
name = center;
pos = (522,260);
},
{
name = top;
pos = (522,520);
},
{
name = topright;
pos = (673,520);
}
);
layerId = m01;
shapes = (
{
closed = 1;
nodes = (
(345,0,l),
(345,70,l),
(274,70,ls),
(225,70,o),
(207,75,o),
(207,143,cs),
(207,649,l),
(117,649,l),
(117,136,ls),
(117,27,o),
(157,0,o),
(245,0,cs)
);
},
{
closed = 1;
nodes = (
(345,450,l),
(345,520,l),
(17,520,l),
(17,450,l)
);
},
{
closed = 1;
nodes = (
(653,0,l),
(653,70,l),
(582,70,ls),
(533,70,o),
(515,75,o),
(515,143,cs),
(515,649,l),
(425,649,l),
(425,136,ls),
(425,27,o),
(465,0,o),
(553,0,cs)
);
},
{
closed = 1;
nodes = (
(653,450,l),
(653,520,l),
(325,520,l),
(325,450,l)
);
}
);
width = 686;
}
);
},
{
color = 6;
glyphname = ordfeminine;
layers = (
{
layerId = m01;
shapes = (
{
closed = 1;
nodes = (
(232,318,o),
(279,347,o),
(299,398,c),
(288,393,l),
(288,324,l),
(347,324,l),
(347,580,ls),
(347,660,o),
(295,706,o),
(206,706,cs),
(117,706,o),
(56,657,o),
(54,587,c),
(126,587,l),
(127,622,o),
(160,648,o),
(206,648,cs),
(253,648,o),
(281,622,o),
(281,571,cs),
(281,477,ls),
(281,414,o),
(246,377,o),
(189,377,cs),
(149,377,o),
(127,398,o),
(127,427,cs),
(127,474,o),
(180,499,o),
(321,509,c),
(319,565,l),
(133,547,o),
(54,504,o),
(54,422,cs),
(54,359,o),
(101,318,o),
(171,318,cs)
);
}
);
width = 415;
}
);
unicode = 170;
},
{
color = 6;
glyphname = ordmasculine;
layers = (
{
layerId = m01;
shapes = (
{
closed = 1;
nodes = (
(329,318,o),
(397,400,o),
(397,512,cs),
(397,624,o),
(329,706,o),
(221,706,cs),
(113,706,o),
(45,624,o),
(45,512,cs),
(45,400,o),
(113,318,o),
(221,318,cs)
);
},
{
closed = 1;
nodes = (
(156,380,o),
(118,431,o),
(118,512,cs),
(118,593,o),
(156,644,o),
(221,644,cs),
(286,644,o),
(324,593,o),
(324,512,cs),
(324,431,o),
(286,380,o),
(221,380,cs)
);
}
);
width = 442;
}
);
unicode = 186;
},
{
color = 6;
glyphname = zero;
layers = (
{
layerId = m01;
shapes = (
{
closed = 1;
nodes = (
(480,-10,o),
(568,124,o),
(568,350,cs),
(568,576,o),
(480,710,o),
(311,710,cs),
(142,710,o),
(54,576,o),
(54,350,cs),
(54,124,o),
(142,-10,o),
(311,-10,cs)
);
},
{
closed = 1;
nodes = (
(203,62,o),
(149,159,o),
(149,350,cs),
(149,541,o),
(203,638,o),
(311,638,cs),
(419,638,o),
(473,541,o),
(473,350,cs),
(473,159,o),
(419,62,o),
(311,62,cs)
);
}
);
width = 622;
}
);
unicode = 48;
},
{
color = 6;
glyphname = one;
layers = (
{
layerId = m01;
shapes = (
{
closed = 1;
nodes = (
(291,0,l),
(291,700,l),
(199,700,l),
(199,0,l)
);
},
{
closed = 1;
nodes = (
(199,607,l),
(199,700,l),
(23,551,l),
(23,448,l)
);
}
);
width = 383;
}
);
unicode = 49;
},
{
color = 6;
glyphname = two;
layers = (
{
guides = (
{
pos = (130,502);
}
);
layerId = m01;
shapes = (
{
closed = 1;
nodes = (
(475,0,l),
(475,72,l),
(165,72,l),
(379,324,ls),
(451,408,o),
(475,461,o),
(475,521,cs),
(475,634,o),
(387,710,o),
(256,710,cs),
(129,710,o),
(46,638,o),
(39,523,c),
(129,523,l),
(135,597,o),
(180,638,o),
(256,638,cs),
(334,638,o),
(380,594,o),
(380,519,cs),
(380,471,o),
(361,436,o),
(288,348,cs),
(52,62,l),
(52,0,l)
);
}
);
width = 526;
}
);
unicode = 50;
},
{
color = 6;
glyphname = three;
layers = (
{
guides = (
{
pos = (187,232);
},
{
angle = 180;
pos = (113,513);
}
);
layerId = m01;
shapes = (
{
closed = 1;
nodes = (
(408,-10,o),
(500,75,o),
(500,194,cs),
(500,287,o),
(437,345,o),
(360,358,c),
(450,386,o),
(490,448,o),
(490,525,cs),
(490,635,o),
(407,710,o),
(279,710,cs),
(154,710,o),
(61,639,o),
(53,523,c),
(144,523,l),
(150,600,o),
(203,637,o),
(274,637,cs),
(350,637,o),
(395,593,o),
(395,516,cs),
(395,445,o),
(352,391,o),
(247,391,cs),
(202,391,l),
(202,321,l),
(257,321,ls),
(352,321,o),
(405,272,o),
(405,193,cs),
(405,111,o),
(354,63,o),
(275,63,cs),
(198,63,o),
(141,106,o),
(136,200,c),
(46,200,l),
(50,67,o),
(147,-10,o),
(274,-10,cs)
);
}
);
width = 556;
}
);
unicode = 51;
},
{
color = 6;
glyphname = four;
layers = (
{
layerId = m01;
shapes = (
{
closed = 1;
nodes = (
(453,0,l),
(453,214,l),
(545,214,l),
(545,284,l),
(453,284,l),
(453,700,l),
(336,700,l),
(33,268,l),
(33,214,l),
(366,214,l),
(366,0,l)
);
},
{
closed = 1;
nodes = (
(389,654,l),
(366,659,l),
(366,284,l),
(132,284,l)
);
}
);
width = 583;
}
);
unicode = 52;
},
{
color = 6;
glyphname = five;
layers = (
{
layerId = m01;
shapes = (
{
closed = 1;
nodes = (
(421,-10,o),
(517,84,o),
(517,222,cs),
(517,348,o),
(432,436,o),
(309,436,cs),
(227,436,o),
(168,400,o),
(124,324,c),
(165,304,l),
(195,343,o),
(240,366,o),
(290,366,cs),
(373,366,o),
(424,311,o),
(424,219,cs),
(424,120,o),
(370,60,o),
(281,60,cs),
(198,60,o),
(139,117,o),
(138,199,c),
(47,199,l),
(52,76,o),
(147,-10,o),
(279,-10,cs)
);
},
{
closed = 1;
nodes = (
(165,304,l),
(147,324,l),
(173,700,l),
(90,700,l),
(69,304,l)
);
},
{
closed = 1;
nodes = (
(482,628,l),
(482,700,l),
(94,700,l),
(94,628,l)
);
}
);
width = 560;
}
);
unicode = 53;
},
{
color = 6;
glyphname = six;
layers = (
{
layerId = m01;
shapes = (
{
closed = 1;
nodes = (
(441,-10,o),
(531,79,o),
(531,217,cs),
(531,350,o),
(449,436,o),
(322,436,cs),
(247,436,o),
(187,404,o),
(153,347,c),
(151,535,o),
(212,640,o),
(323,640,cs),
(395,640,o),
(441,598,o),
(441,533,cs),
(441,523,l),
(531,523,l),
(531,533,ls),
(531,642,o),
(453,710,o),
(327,710,cs),
(153,710,o),
(55,575,o),
(55,337,cs),
(55,109,o),
(140,-10,o),
(303,-10,cs)
);
},
{
closed = 1;
nodes = (
(214,60,o),
(160,122,o),
(160,219,cs),
(160,308,o),
(218,366,o),
(305,366,cs),
(390,366,o),
(438,311,o),
(438,216,cs),
(438,120,o),
(385,60,o),
(300,60,cs)
);
}
);
width = 587;
}
);
unicode = 54;
},
{
color = 6;
glyphname = seven;
layers = (
{
layerId = m01;
shapes = (
{
closed = 1;
nodes = (
(207,0,l),
(480,631,l),
(480,700,l),
(10,700,l),
(10,628,l),
(393,628,l),
(107,0,l)
);
}
);
width = 505;
}
);
unicode = 55;
},
{
color = 6;
glyphname = eight;
layers = (
{
layerId = m01;
shapes = (
{
closed = 1;
nodes = (
(431,-10,o),
(529,70,o),
(529,184,cs),
(529,264,o),
(488,324,o),
(401,354,c),
(478,380,o),
(524,443,o),
(524,520,cs),
(524,629,o),
(431,709,o),
(293,709,cs),
(155,709,o),
(62,629,o),
(62,520,cs),
(62,443,o),
(108,380,o),
(185,354,c),
(98,324,o),
(57,264,o),
(57,184,cs),
(57,70,o),
(155,-10,o),
(293,-10,cs)
);
},
{
closed = 1;
nodes = (
(213,60,o),
(152,109,o),
(152,191,cs),
(152,270,o),
(206,320,o),
(293,320,cs),
(380,320,o),
(434,270,o),
(434,191,cs),
(434,109,o),
(373,60,o),
(293,60,cs)
);
},
{
closed = 1;
nodes = (
(206,388,o),
(157,438,o),
(157,513,cs),
(157,589,o),
(213,639,o),
(293,639,cs),
(373,639,o),
(429,589,o),
(429,513,cs),
(429,438,o),
(380,388,o),
(293,388,cs)
);
}
);
width = 586;
}
);
unicode = 56;
},
{
color = 6;
glyphname = nine;
layers = (
{
layerId = m01;
shapes = (
{
closed = 1;
nodes = (
(437,-10,o),
(529,123,o),
(529,363,cs),
(529,594,o),
(448,710,o),
(285,710,cs),
(146,710,o),
(53,619,o),
(53,485,cs),
(53,352,o),
(136,264,o),
(262,264,cs),
(338,264,o),
(396,295,o),
(431,353,c),
(433,161,o),
(378,60,o),
(272,60,cs),
(200,60,o),
(149,105,o),
(149,167,cs),
(149,177,l),
(59,177,l),
(59,167,ls),
(59,62,o),
(146,-10,o),
(271,-10,cs)
);
},
{
closed = 1;
nodes = (
(195,334,o),
(146,391,o),
(146,486,cs),
(146,579,o),
(203,640,o),
(289,640,cs),
(373,640,o),
(424,580,o),
(424,482,cs),
(424,393,o),
(366,334,o),
(279,334,cs)
);
}
);
width = 584;
}
);
unicode = 57;
},
{
color = 6;
glyphname = zero.dnom;
kernLeft = zero.dnom;
kernRight = zero.dnom;
layers = (
{
layerId = m01;
shapes = (
{
closed = 1;
nodes = (
(268,-6,o),
(325,67,o),
(325,188,cs),
(325,309,o),
(268,382,o),
(178,382,cs),
(88,382,o),
(31,309,o),
(31,188,cs),
(31,67,o),
(88,-6,o),
(178,-6,cs)
);
},
{
closed = 1;
nodes = (
(127,51,o),
(99,94,o),
(99,188,cs),
(99,282,o),
(127,325,o),
(178,325,cs),
(229,325,o),
(257,282,o),
(257,188,cs),
(257,94,o),
(229,51,o),
(178,51,cs)
);
}
);
width = 356;
}
);
},
{
color = 6;
glyphname = one.dnom;
kernLeft = zero.dnom;
kernRight = zero.dnom;
layers = (
{
layerId = m01;
shapes = (
{
closed = 1;
nodes = (
(185,0,l),
(185,376,l),
(121,376,l),
(17,286,l),
(17,213,l),
(121,310,l),
(121,0,l)
);
}
);
width = 238;
}
);
},
{
color = 6;
glyphname = two.dnom;
kernLeft = zero.dnom;
kernRight = zero.dnom;
layers = (
{
layerId = m01;
shapes = (
{
closed = 1;
nodes = (
(283,0,l),
(283,53,l),
(84,53,l),
(91,30,l),
(211,152,ls),
(261,203,o),
(278,236,o),
(278,275,cs),
(278,340,o),
(228,382,o),
(153,382,cs),
(75,382,o),
(26,334,o),
(24,266,c),
(90,266,l),
(91,307,o),
(113,329,o),
(153,329,cs),
(192,329,o),
(212,309,o),
(212,274,cs),
(212,244,o),
(197,223,o),
(163,187,cs),
(33,49,l),
(33,0,l)
);
}
);
width = 311;
}
);
},
{
color = 6;
glyphname = three.dnom;
kernLeft = zero.dnom;
kernRight = zero.dnom;
layers = (
{
layerId = m01;
shapes = (
{
closed = 1;
nodes = (
(238,-6,o),
(291,41,o),
(291,107,cs),
(291,152,o),
(265,181,o),
(217,194,c),
(260,208,o),
(283,237,o),
(283,277,cs),
(283,338,o),
(230,382,o),
(157,382,cs),
(83,382,o),
(31,337,o),
(29,271,c),
(95,271,l),
(96,309,o),
(120,329,o),
(157,329,cs),
(195,329,o),
(217,309,o),
(217,274,cs),
(217,239,o),
(194,218,o),
(155,218,cs),
(128,218,l),
(128,166,l),
(155,166,ls),
(200,166,o),
(225,146,o),
(225,107,cs),
(225,69,o),
(202,47,o),
(161,47,cs),
(118,47,o),
(94,69,o),
(93,116,c),
(27,116,l),
(29,41,o),
(81,-6,o),
(161,-6,cs)
);
}
);
width = 322;
}
);
},
{
color = 6;
glyphname = four.dnom;
kernLeft = zero.dnom;
kernRight = zero.dnom;
layers = (
{
layerId = m01;
shapes = (
{
closed = 1;
nodes = (
(265,0,l),
(265,111,l),
(323,111,l),
(323,161,l),
(265,161,l),
(265,376,l),
(178,376,l),
(22,149,l),
(22,111,l),
(205,111,l),
(205,0,l)
);
},
{
closed = 1;
nodes = (
(219,352,l),
(205,354,l),
(205,161,l),
(50,161,l),
(66,126,l)
);
}
);
width = 346;
}
);
},
{
color = 6;
glyphname = five.dnom;
kernLeft = zero.dnom;
kernRight = zero.dnom;
layers = (
{
layerId = m01;
shapes = (
{
closed = 1;
nodes = (
(236,-6,o),
(289,46,o),
(289,122,cs),
(289,190,o),
(244,240,o),
(177,240,cs),
(132,240,o),
(97,219,o),
(79,181,c),
(107,165,l),
(120,179,o),
(137,187,o),
(161,187,cs),
(203,187,o),
(223,163,o),
(223,122,cs),
(223,75,o),
(199,47,o),
(158,47,cs),
(121,47,o),
(95,70,o),
(94,108,c),
(28,108,l),
(30,41,o),
(83,-6,o),
(158,-6,cs)
);
},
{
closed = 1;
nodes = (
(107,165,l),
(98,190,l),
(109,346,l),
(84,320,l),
(275,320,l),
(275,376,l),
(52,376,l),
(38,165,l)
);
}
);
width = 316;
}
);
},
{
color = 6;
glyphname = six.dnom;
kernLeft = zero.dnom;
kernRight = zero.dnom;
layers = (
{
layerId = m01;
shapes = (
{
closed = 1;
nodes = (
(247,-6,o),
(298,44,o),
(298,119,cs),
(298,187,o),
(253,235,o),
(183,235,cs),
(138,235,o),
(103,215,o),
(87,181,c),
(100,155,l),
(91,269,o),
(116,329,o),
(177,329,cs),
(212,329,o),
(231,311,o),
(232,274,c),
(298,274,l),
(297,339,o),
(251,382,o),
(178,382,cs),
(84,382,o),
(32,309,o),
(32,181,cs),
(32,58,o),
(80,-6,o),
(170,-6,cs)
);
},
{
closed = 1;
nodes = (
(130,47,o),
(106,71,o),
(106,116,cs),
(106,160,o),
(130,183,o),
(171,183,cs),
(212,183,o),
(232,161,o),
(232,117,cs),
(232,70,o),
(210,47,o),
(170,47,cs)
);
}
);
width = 330;
}
);
},
{
color = 6;
glyphname = seven.dnom;
kernLeft = zero.dnom;
kernRight = zero.dnom;
layers = (
{
layerId = m01;
shapes = (
{
closed = 1;
nodes = (
(131,0,l),
(263,329,l),
(263,376,l),
(11,376,l),
(11,323,l),
(241,323,l),
(220,375,l),
(58,0,l)
);
}
);
width = 281;
}
);
},
{
color = 6;
glyphname = eight.dnom;
kernLeft = zero.dnom;
kernRight = zero.dnom;
layers = (
{
layerId = m01;
shapes = (
{
closed = 1;
nodes = (
(242,-6,o),
(293,34,o),
(293,98,cs),
(293,141,o),
(269,173,o),
(224,190,c),
(265,204,o),
(290,235,o),
(290,277,cs),
(290,339,o),
(237,382,o),
(163,382,cs),
(89,382,o),
(36,339,o),
(36,277,cs),
(36,235,o),
(61,204,o),
(102,190,c),
(57,173,o),
(33,141,o),
(33,98,cs),
(33,34,o),
(84,-6,o),
(163,-6,cs)
);
},
{
closed = 1;
nodes = (
(121,47,o),
(99,68,o),
(99,105,cs),
(99,143,o),
(123,164,o),
(163,164,cs),
(203,164,o),
(227,143,o),
(227,105,cs),
(227,68,o),
(205,47,o),
(163,47,cs)
);
},
{
closed = 1;
nodes = (
(125,217,o),
(102,237,o),
(102,273,cs),
(102,309,o),
(124,329,o),
(163,329,cs),
(202,329,o),
(224,309,o),
(224,273,cs),
(224,237,o),
(201,217,o),
(163,217,cs)
);
}
);
width = 326;
}
);
},
{
color = 6;
glyphname = nine.dnom;
kernLeft = zero.dnom;
kernRight = zero.dnom;
layers = (
{
layerId = m01;
shapes = (
{
closed = 1;
nodes = (
(248,-6,o),
(296,64,o),
(296,195,cs),
(296,318,o),
(248,382,o),
(158,382,cs),
(81,382,o),
(30,332,o),
(30,259,cs),
(30,189,o),
(77,141,o),
(145,141,cs),
(189,141,o),
(223,161,o),
(239,195,c),
(228,221,l),
(237,99,o),
(216,47,o),
(157,47,cs),
(122,47,o),
(102,65,o),
(101,102,c),
(35,102,l),
(36,37,o),
(83,-6,o),
(156,-6,cs)
);
},
{
closed = 1;
nodes = (
(118,193,o),
(96,216,o),
(96,260,cs),
(96,306,o),
(118,329,o),
(158,329,cs),
(198,329,o),
(222,305,o),
(222,259,cs),
(222,216,o),
(199,193,o),
(158,193,cs)
);
}
);
width = 328;
}
);
},
{
color = 6;
glyphname = fraction;
layers = (
{
layerId = m01;
shapes = (
{
closed = 1;
nodes = (
(-80,0,l),
(337,700,l),
(260,700,l),
(-157,0,l)
);
}
);
width = 180;
}
);
unicode = 8260;
},
{
color = 6;
glyphname = .notdef;
layers = (
{
layerId = m01;
shapes = (
{
closed = 1;
nodes = (
(552,0,l),
(552,700,l),
(45,700,l),
(45,0,l)
);
},
{
closed = 1;
nodes = (
(139,628,l),
(458,628,l),
(458,72,l),
(139,72,l)
);
}
);
width = 597;
}
);
},
{
color = 6;
glyphname = period;
kernLeft = period;
kernRight = period;
layers = (
{
layerId = m01;
shapes = (
{
closed = 1;
nodes = (
(151,-10,o),
(180,15,o),
(180,54,cs),
(180,90,o),
(151,116,o),
(117,116,cs),
(82,116,o),
(53,90,o),
(53,54,cs),
(53,15,o),
(82,-10,o),
(117,-10,cs)
);
}
);
width = 233;
}
);
unicode = 46;
},
{
color = 6;
glyphname = comma;
kernLeft = period;
kernRight = period;
layers = (
{
layerId = m01;
shapes = (
{
closed = 1;
nodes = (
(144,-138,o),
(192,-74,o),
(192,21,cs),
(192,77,o),
(165,112,o),
(118,112,cs),
(80,112,o),
(54,88,o),
(54,52,cs),
(54,15,o),
(80,-10,o),
(115,-10,cs),
(134,-10,o),
(151,-2,o),
(163,13,c),
(138,10,l),
(137,-58,o),
(114,-94,o),
(64,-124,c),
(64,-178,l)
);
}
);
width = 245;
}
);
unicode = 44;
},
{
color = 6;
glyphname = exclam;
layers = (
{
layerId = m01;
shapes = (
{
closed = 1;
nodes = (
(161,194,l),
(168,327,o),
(176,459,o),
(176,592,cs),
(176,700,l),
(86,700,l),
(86,592,ls),
(86,459,o),
(94,327,o),
(101,194,c)
);
},
{
closed = 1;
nodes = (
(164,-10,o),
(193,15,o),
(193,53,cs),
(193,88,o),
(164,114,o),
(131,114,cs),
(97,114,o),
(68,88,o),
(68,53,cs),
(68,15,o),
(97,-10,o),
(131,-10,cs)
);
}
);
width = 262;
}
);
unicode = 33;
},
{
color = 6;
glyphname = question;
layers = (
{
layerId = m01;
shapes = (
{
closed = 1;
nodes = (
(276,186,l),
(276,232,ls),
(276,277,o),
(290,308,o),
(326,341,cs),
(367,379,ls),
(405,413,o),
(453,449,o),
(453,528,cs),
(453,634,o),
(362,710,o),
(234,710,cs),
(107,710,o),
(24,638,o),
(17,523,c),
(107,523,l),
(113,597,o),
(158,638,o),
(234,638,cs),
(310,638,o),
(358,594,o),
(358,526,cs),
(358,470,o),
(325,446,o),
(289,415,cs),
(247,378,ls),
(202,339,o),
(186,302,o),
(186,239,cs),
(186,186,l)
);
},
{
closed = 1;
nodes = (
(269,-10,o),
(296,17,o),
(296,53,cs),
(296,87,o),
(268,114,o),
(234,114,cs),
(199,114,o),
(171,87,o),
(171,53,cs),
(171,17,o),
(198,-10,o),
(234,-10,cs)
);
}
);
width = 479;
}
);
unicode = 63;
},
{
color = 6;
glyphname = bullet;
layers = (
{
layerId = m01;
shapes = (
{
closed = 1;
nodes = (
(261,238,o),
(312,286,o),
(312,355,cs),
(312,423,o),
(261,471,o),
(197,471,cs),
(132,471,o),
(80,423,o),
(80,355,cs),
(80,286,o),
(132,238,o),
(197,238,cs)
);
}
);
width = 392;
}
);
unicode = 8226;
},
{
color = 6;
glyphname = asterisk;
layers = (
{
layerId = m01;
shapes = (
{
closed = 1;
nodes = (
(338,413,l),
(309,452,ls),
(276,496,o),
(248,512,o),
(222,539,c),
(198,521,l),
(216,487,o),
(222,457,o),
(254,412,cs),
(282,373,l)
);
},
{
closed = 1;
nodes = (
(166,411,ls),
(198,456,o),
(205,488,o),
(223,522,c),
(198,538,l),
(171,511,o),
(144,496,o),
(112,453,cs),
(83,413,l),
(138,372,l)
);
},
{
closed = 1;
nodes = (
(214,545,l),
(181,561,o),
(158,581,o),
(105,599,cs),
(60,615,l),
(38,550,l),
(83,535,ls),
(137,517,o),
(168,522,o),
(206,515,c)
);
},
{
closed = 1;
nodes = (
(225,530,l),
(231,568,o),
(244,595,o),
(244,653,cs),
(244,700,l),
(176,700,l),
(176,653,ls),
(176,595,o),
(189,568,o),
(195,530,c)
);
},
{
closed = 1;
nodes = (
(252,522,o),
(283,519,o),
(337,536,cs),
(382,550,l),
(361,615,l),
(316,600,ls),
(262,582,o),
(239,561,o),
(205,544,c),
(215,516,l)
);
}
);
width = 421;
}
);
unicode = 42;
},
{
color = 6;
glyphname = numbersign;
layers = (
{
guides = (
{
angle = 254.7449;
pos = (101,464);
}
);
layerId = m01;
shapes = (
{
closed = 1;
nodes = (
(365,0,l),
(565,700,l),
(491,700,l),
(291,0,l)
);
},
{
closed = 1;
nodes = (
(-17,199,l),
(582,199,l),
(525,179,l),
(549,267,l),
(40,267,l),
(16,179,l)
);
},
{
closed = 1;
nodes = (
(140,0,l),
(340,700,l),
(266,700,l),
(66,0,l)
);
},
{
closed = 1;
nodes = (
(49,440,l),
(648,440,l),
(591,420,l),
(615,508,l),
(106,508,l),
(82,420,l)
);
}
);
width = 635;
}
);
unicode = 35;
},
{
color = 6;
glyphname = slash;
layers = (
{
layerId = m01;
shapes = (
{
closed = 1;
nodes = (
(98,-150,l),
(445,760,l),
(361,760,l),
(14,-150,l)
);
}
);
width = 459;
}
);
unicode = 47;
},
{
color = 6;
glyphname = backslash;
layers = (
{
layerId = m01;
shapes = (
{
closed = 1;
nodes = (
(445,-150,l),
(98,760,l),
(14,760,l),
(361,-150,l)
);
}
);
width = 459;
}
);
unicode = 92;
},
{
color = 6;
glyphname = hyphen;
kernLeft = hyphen;
kernRight = hyphen;
layers = (
{
layerId = m01;
shapes = (
{
closed = 1;
nodes = (
(331,290,l),
(331,360,l),
(53,360,l),
(53,290,l)
);
}
);
width = 384;
}
);
unicode = 45;
},
{
color = 6;
glyphname = endash;
kernLeft = hyphen;
kernRight = hyphen;
layers = (
{
layerId = m01;
shapes = (
{
closed = 1;
nodes = (
(531,290,l),
(531,360,l),
(53,360,l),
(53,290,l)
);
}
);
width = 584;
}
);
unicode = 8211;
},
{
color = 6;
glyphname = emdash;
kernLeft = hyphen;
kernRight = hyphen;
layers = (
{
layerId = m01;
shapes = (
{
closed = 1;
nodes = (
(1033,290,l),
(1033,360,l),
(53,360,l),
(53,290,l)
);
}
);
width = 1086;
}
);
unicode = 8212;
},
{
color = 6;
glyphname = underscore;
layers = (
{
layerId = m01;
shapes = (
{
closed = 1;
nodes = (
(503,-126,l),
(503,-56,l),
(25,-56,l),
(25,-126,l)
);
}
);
width = 528;
}
);
unicode = 95;
},
{
color = 6;
glyphname = parenleft;
layers = (
{
layerId = m01;
shapes = (
{
closed = 1;
nodes = (
(134,305,l),
(134,481,o),
(193,620,o),
(327,760,c),
(238,760,l),
(111,643,o),
(44,485,o),
(44,305,c)
);
},
{
closed = 1;
nodes = (
(327,-150,l),
(193,-10,o),
(134,129,o),
(134,305,c),
(44,305,l),
(44,125,o),
(111,-33,o),
(238,-150,c)
);
}
);
width = 325;
}
);
unicode = 40;
},
{
color = 6;
glyphname = braceleft;
layers = (
{
layerId = m01;
shapes = (
{
closed = 1;
nodes = (
(337,-150,l),
(337,-88,l),
(234,-88,o),
(220,-76,o),
(220,8,cs),
(220,191,ls),
(220,260,o),
(195,293,o),
(134,305,c),
(195,317,o),
(220,350,o),
(220,419,cs),
(220,602,ls),
(220,686,o),
(234,698,o),
(337,698,c),
(337,760,l),
(273,760,ls),
(181,760,o),
(136,716,o),
(136,624,cs),
(136,431,ls),
(136,364,o),
(116,340,o),
(52,340,cs),
(32,340,l),
(32,270,l),
(52,270,ls),
(116,270,o),
(136,246,o),
(136,179,cs),
(136,-14,ls),
(136,-106,o),
(181,-150,o),
(273,-150,cs)
);
}
);
width = 360;
}
);
unicode = 123;
},
{
color = 6;
glyphname = bracketleft;
layers = (
{
layerId = m01;
shapes = (
{
closed = 1;
nodes = (
(281,-150,l),
(281,-88,l),
(174,-88,l),
(174,698,l),
(281,698,l),
(281,760,l),
(90,760,l),
(90,-150,l)
);
}
);
width = 306;
}
);
unicode = 91;
},
{
color = 6;
glyphname = quotesinglbase;
kernLeft = period;
kernRight = period;
layers = (
{
layerId = m01;
shapes = (
{
closed = 1;
nodes = (
(140,-118,o),
(185,-57,o),
(185,19,cs),
(185,74,o),
(161,104,o),
(116,104,cs),
(80,104,o),
(56,81,o),
(56,48,cs),
(56,14,o),
(79,-10,o),
(113,-10,cs),
(132,-10,o),
(147,-3,o),
(158,11,c),
(135,10,l),
(134,-40,o),
(114,-72,o),
(61,-99,c),
(61,-150,l)
);
}
);
width = 239;
}
);
unicode = 8218;
},
{
color = 6;
glyphname = quotedblbase;
kernLeft = period;
kernRight = period;
layers = (
{
layerId = m01;
shapes = (
{
closed = 1;
nodes = (
(140,-118,o),
(185,-57,o),
(185,19,cs),
(185,74,o),
(161,104,o),
(116,104,cs),
(80,104,o),
(56,81,o),
(56,48,cs),
(56,14,o),
(79,-10,o),
(113,-10,cs),
(132,-10,o),
(147,-3,o),
(158,11,c),
(135,10,l),
(134,-40,o),
(114,-72,o),
(61,-99,c),
(61,-150,l)
);
},
{
closed = 1;
nodes = (
(307,-118,o),
(352,-57,o),
(352,19,cs),
(352,74,o),
(328,104,o),
(283,104,cs),
(247,104,o),
(223,81,o),
(223,48,cs),
(223,14,o),
(246,-10,o),
(280,-10,cs),
(299,-10,o),
(314,-3,o),
(325,11,c),
(302,10,l),
(301,-40,o),
(281,-72,o),
(228,-99,c),
(228,-150,l)
);
}
);
width = 406;
}
);
unicode = 8222;
},
{
color = 6;
glyphname = quotedblleft;
kernLeft = quoteleft;
kernRight = quoteleft;
layers = (
{
layerId = m01;
shapes = (
{
closed = 1;
nodes = (
(94,678,o),
(49,617,o),
(49,541,cs),
(49,486,o),
(73,456,o),
(118,456,cs),
(154,456,o),
(178,479,o),
(178,512,cs),
(178,546,o),
(155,570,o),
(121,570,cs),
(102,570,o),
(87,563,o),
(76,549,c),
(99,550,l),
(100,600,o),
(120,632,o),
(173,659,c),
(173,710,l)
);
},
{
closed = 1;
nodes = (
(261,678,o),
(216,617,o),
(216,541,cs),
(216,486,o),
(240,456,o),
(285,456,cs),
(321,456,o),
(345,479,o),
(345,512,cs),
(345,546,o),
(322,570,o),
(288,570,cs),
(269,570,o),
(254,563,o),
(243,549,c),
(266,550,l),
(267,600,o),
(287,632,o),
(340,659,c),
(340,710,l)
);
}
);
width = 400;
}
);
unicode = 8220;
},
{
color = 6;
glyphname = quotedblright;
kernLeft = quoteright;
kernRight = quoteright;
layers = (
{
layerId = m01;
shapes = (
{
closed = 1;
nodes = (
(310,488,o),
(355,549,o),
(355,625,cs),
(355,680,o),
(331,710,o),
(286,710,cs),
(250,710,o),
(226,687,o),
(226,654,cs),
(226,620,o),
(249,596,o),
(283,596,cs),
(302,596,o),
(317,603,o),
(328,617,c),
(305,616,l),
(304,566,o),
(284,534,o),
(231,507,c),
(231,456,l)
);
},
{
closed = 1;
nodes = (
(143,488,o),
(188,549,o),
(188,625,cs),
(188,680,o),
(164,710,o),
(119,710,cs),
(83,710,o),
(59,687,o),
(59,654,cs),
(59,620,o),
(82,596,o),
(116,596,cs),
(135,596,o),
(150,603,o),
(161,617,c),
(138,616,l),
(137,566,o),
(117,534,o),
(64,507,c),
(64,456,l)
);
}
);
width = 397;
}
);
unicode = 8221;
},
{
color = 6;
glyphname = quoteleft;
kernLeft = quoteleft;
kernRight = quoteleft;
layers = (
{
layerId = m01;
shapes = (
{
closed = 1;
nodes = (
(94,678,o),
(49,617,o),
(49,541,cs),
(49,486,o),
(73,456,o),
(118,456,cs),
(154,456,o),
(178,479,o),
(178,512,cs),
(178,546,o),
(155,570,o),
(121,570,cs),
(102,570,o),
(87,563,o),
(76,549,c),
(99,550,l),
(100,600,o),
(120,632,o),
(173,659,c),
(173,710,l)
);
}
);
width = 233;
}
);
unicode = 8216;
},
{
color = 6;
glyphname = quoteright;
kernLeft = quoteright;
kernRight = quoteright;
layers = (
{
layerId = m01;
shapes = (
{
closed = 1;
nodes = (
(143,488,o),
(188,549,o),
(188,625,cs),
(188,680,o),
(164,710,o),
(119,710,cs),
(83,710,o),
(59,687,o),
(59,654,cs),
(59,620,o),
(82,596,o),
(116,596,cs),
(135,596,o),
(150,603,o),
(161,617,c),
(138,616,l),
(137,566,o),
(117,534,o),
(64,507,c),
(64,456,l)
);
}
);
width = 230;
}
);
unicode = 8217;
},
{
color = 6;
glyphname = guillemetleft;
kernLeft = guilsinglleft;
kernRight = guilsinglleft;
layers = (
{
layerId = m01;
shapes = (
{
closed = 1;
nodes = (
(587,92,l),
(342,279,l),
(342,241,l),
(587,428,l),
(587,520,l),
(299,295,l),
(299,225,l),
(587,0,l)
);
},
{
closed = 1;
nodes = (
(337,92,l),
(92,279,l),
(92,241,l),
(337,428,l),
(337,520,l),
(49,295,l),
(49,225,l),
(337,0,l)
);
}
);
width = 642;
}
);
unicode = 171;
},
{
color = 6;
glyphname = guillemetright;
kernLeft = guilsinglright;
kernRight = guilsinglright;
layers = (
{
layerId = m01;
shapes = (
{
closed = 1;
nodes = (
(593,225,l),
(593,295,l),
(305,520,l),
(305,428,l),
(550,241,l),
(550,279,l),
(305,92,l),
(305,0,l)
);
},
{
closed = 1;
nodes = (
(343,225,l),
(343,295,l),
(55,520,l),
(55,428,l),
(300,241,l),
(300,279,l),
(55,92,l),
(55,0,l)
);
}
);
width = 642;
}
);
unicode = 187;
},
{
color = 6;
glyphname = guilsinglleft;
kernLeft = guilsinglleft;
kernRight = guilsinglleft;
layers = (
{
layerId = m01;
shapes = (
{
closed = 1;
nodes = (
(337,92,l),
(92,279,l),
(92,241,l),
(337,428,l),
(337,520,l),
(49,295,l),
(49,225,l),
(337,0,l)
);
}
);
width = 392;
}
);
unicode = 8249;
},
{
color = 6;
glyphname = guilsinglright;
kernLeft = guilsinglright;
kernRight = guilsinglright;
layers = (
{
layerId = m01;
shapes = (
{
closed = 1;
nodes = (
(343,225,l),
(343,295,l),
(55,520,l),
(55,428,l),
(300,241,l),
(300,279,l),
(55,92,l),
(55,0,l)
);
}
);
width = 392;
}
);
unicode = 8250;
},
{
color = 6;
glyphname = quotesingle;
kernLeft = quotesingle;
kernRight = quotesingle;
layers = (
{
layerId = m01;
shapes = (
{
closed = 1;
nodes = (
(128,465,l),
(141,545,o),
(148,583,o),
(148,638,cs),
(148,700,l),
(58,700,l),
(58,638,ls),
(58,583,o),
(65,545,o),
(78,465,c)
);
}
);
width = 206;
}
);
unicode = 39;
},
{
color = 6;
glyphname = florin;
layers = (
{
layerId = m01;
shapes = (
{
closed = 1;
nodes = (
(132,-104,ls),
(120,-172,o),
(101,-177,o),
(52,-177,cs),
(-17,-177,l),
(-30,-247,l),
(70,-247,ls),
(158,-247,o),
(202,-220,o),
(222,-111,cs),
(342,557,ls),
(354,625,o),
(373,630,o),
(422,630,cs),
(492,630,l),
(504,700,l),
(404,700,ls),
(316,700,o),
(272,673,o),
(252,564,cs)
);
},
{
closed = 1;
nodes = (
(435,346,l),
(435,416,l),
(107,416,l),
(107,346,l)
);
}
);
width = 474;
}
);
unicode = 402;
},
{
color = 6;
glyphname = at;
layers = (
{
layerId = m01;
shapes = (
{
closed = 1;
nodes = (
(612,-175,o),
(699,-157,o),
(784,-121,c),
(784,-49,l),
(702,-82,o),
(613,-101,o),
(508,-101,cs),
(267,-101,o),
(130,58,o),
(130,261,cs),
(130,464,o),
(268,636,o),
(495,636,cs),
(714,636,o),
(841,488,o),
(841,316,cs),
(841,181,o),
(793,103,o),
(719,103,cs),
(680,103,o),
(666,121,o),
(666,150,cs),
(666,345,ls),
(666,459,o),
(606,515,o),
(480,515,cs),
(376,515,o),
(297,452,o),
(295,363,c),
(378,363,l),
(380,412,o),
(424,449,o),
(482,449,cs),
(549,449,o),
(583,418,o),
(583,353,cs),
(583,328,l),
(349,299,o),
(295,237,o),
(295,156,cs),
(295,78,o),
(353,25,o),
(443,25,cs),
(505,25,o),
(559,49,o),
(590,95,c),
(600,67,o),
(627,34,o),
(704,34,cs),
(835,34,o),
(928,140,o),
(928,320,cs),
(928,530,o),
(761,710,o),
(497,710,cs),
(223,710,o),
(41,505,o),
(41,261,cs),
(41,12,o),
(208,-175,o),
(500,-175,cs)
);
},
{
closed = 1;
nodes = (
(412,91,o),
(381,118,o),
(381,160,cs),
(381,208,o),
(419,248,o),
(583,267,c),
(583,225,ls),
(583,142,o),
(538,91,o),
(464,91,cs)
);
}
);
width = 974;
}
);
unicode = 64;
},
{
color = 6;
glyphname = ampersand;
layers = (
{
layerId = m01;
shapes = (
{
closed = 1;
nodes = (
(650,0,l),
(272,394,l),
(204,458,o),
(184,501,o),
(184,540,cs),
(184,601,o),
(225,637,o),
(283,637,cs),
(341,637,o),
(382,601,o),
(382,542,cs),
(382,487,o),
(353,448,o),
(262,392,c),
(304,342,l),
(429,407,o),
(475,463,o),
(475,543,cs),
(475,645,o),
(397,710,o),
(283,710,cs),
(171,710,o),
(89,643,o),
(89,542,cs),
(89,485,o),
(111,444,o),
(196,355,cs),
(535,0,l)
);
},
{
closed = 1;
nodes = (
(464,-10,o),
(553,152,o),
(632,390,c),
(542,390,l),
(491,206,o),
(413,63,o),
(272,63,cs),
(194,63,o),
(146,110,o),
(146,180,cs),
(146,242,o),
(182,288,o),
(254,321,c),
(210,372,l),
(109,334,o),
(51,265,o),
(51,177,cs),
(51,68,o),
(140,-10,o),
(269,-10,cs)
);
}
);
width = 662;
}
);
unicode = 38;
},
{
color = 6;
glyphname = paragraph;
layers = (
{
layerId = m01;
shapes = (
{
closed = 1;
nodes = (
(322,321,l),
(322,700,l),
(238,700,ls),
(116,700,o),
(18,642,o),
(18,516,cs),
(18,386,o),
(116,321,o),
(226,321,cs)
);
},
{
closed = 1;
nodes = (
(332,-150,l),
(332,700,l),
(251,700,l),
(251,-150,l)
);
},
{
closed = 1;
nodes = (
(488,-150,l),
(488,700,l),
(407,700,l),
(407,-150,l)
);
},
{
closed = 1;
nodes = (
(564,628,l),
(564,700,l),
(277,700,l),
(277,628,l)
);
}
);
width = 600;
}
);
unicode = 182;
},
{
color = 6;
glyphname = section;
layers = (
{
layerId = m01;
shapes = (
{
closed = 1;
nodes = (
(431,152,o),
(474,206,o),
(474,274,cs),
(474,344,o),
(430,401,o),
(357,427,cs),
(220,476,ls),
(173,493,o),
(155,516,o),
(155,557,cs),
(155,605,o),
(193,635,o),
(256,635,cs),
(325,635,o),
(359,606,o),
(374,534,c),
(464,534,l),
(456,648,o),
(385,710,o),
(262,710,cs),
(145,710,o),
(63,643,o),
(63,547,cs),
(63,476,o),
(101,426,o),
(175,400,cs),
(306,354,ls),
(358,336,o),
(384,307,o),
(384,265,cs),
(384,219,o),
(356,184,o),
(309,169,c),
(356,128,l)
);
},
{
closed = 1;
nodes = (
(382,-150,o),
(464,-83,o),
(464,13,cs),
(464,84,o),
(426,134,o),
(352,160,cs),
(221,206,ls),
(169,224,o),
(143,253,o),
(143,295,cs),
(143,341,o),
(171,376,o),
(218,391,c),
(171,432,l),
(96,408,o),
(53,354,o),
(53,286,cs),
(53,217,o),
(97,159,o),
(170,133,cs),
(307,84,ls),
(354,67,o),
(372,44,o),
(372,3,cs),
(372,-45,o),
(334,-75,o),
(271,-75,cs),
(202,-75,o),
(168,-46,o),
(153,26,c),
(63,26,l),
(71,-88,o),
(142,-150,o),
(265,-150,cs)
);
}
);
width = 526;
}
);
unicode = 167;
},
{
color = 6;
glyphname = copyright;
kernLeft = copyright;
kernRight = copyright;
layers = (
{
layerId = m01;
shapes = (
{
closed = 1;
nodes = (
(625,-10,o),
(775,140,o),
(775,351,cs),
(775,560,o),
(625,710,o),
(416,710,cs),
(207,710,o),
(57,560,o),
(57,351,cs),
(57,140,o),
(207,-10,o),
(416,-10,cs)
);
},
{
closed = 1;
nodes = (
(246,51,o),
(124,177,o),
(124,351,cs),
(124,526,o),
(246,649,o),
(416,649,cs),
(586,649,o),
(708,526,o),
(708,351,cs),
(708,177,o),
(586,51,o),
(416,51,cs)
);
},
{
closed = 1;
nodes = (
(497,161,o),
(568,210,o),
(570,300,c),
(501,300,l),
(498,247,o),
(459,224,o),
(419,224,cs),
(356,224,o),
(320,272,o),
(320,353,cs),
(320,435,o),
(359,482,o),
(421,482,cs),
(460,482,o),
(498,460,o),
(501,412,c),
(570,412,l),
(567,498,o),
(509,545,o),
(422,545,cs),
(310,545,o),
(245,464,o),
(245,353,cs),
(245,243,o),
(307,161,o),
(418,161,cs)
);
}
);
width = 832;
}
);
unicode = 169;
},
{
color = 6;
glyphname = registered;
kernLeft = copyright;
kernRight = copyright;
layers = (
{
layerId = m01;
shapes = (
{
closed = 1;
nodes = (
(625,-10,o),
(775,140,o),
(775,351,cs),
(775,560,o),
(625,710,o),
(416,710,cs),
(207,710,o),
(57,560,o),
(57,351,cs),
(57,140,o),
(207,-10,o),
(416,-10,cs)
);
},
{
closed = 1;
nodes = (
(246,51,o),
(124,177,o),
(124,351,cs),
(124,526,o),
(246,649,o),
(416,649,cs),
(586,649,o),
(708,526,o),
(708,351,cs),
(708,177,o),
(586,51,o),
(416,51,cs)
);
},
{
closed = 1;
nodes = (
(357,164,l),
(357,320,l),
(370,320,ls),
(450,320,o),
(470,286,o),
(484,179,cs),
(486,164,l),
(557,164,l),
(555,179,ls),
(540,295,o),
(509,337,o),
(442,356,c),
(446,340,l),
(514,344,o),
(557,383,o),
(557,443,cs),
(557,507,o),
(512,542,o),
(428,542,cs),
(287,542,l),
(287,164,l)
);
},
{
closed = 1;
nodes = (
(357,484,l),
(412,484,ls),
(471,484,o),
(486,465,o),
(486,431,cs),
(486,400,o),
(469,377,o),
(417,377,cs),
(357,377,l)
);
}
);
width = 832;
}
);
unicode = 174;
},
{
color = 6;
glyphname = trademark;
layers = (
{
layerId = m01;
shapes = (
{
closed = 1;
nodes = (
(221,262,l),
(221,700,l),
(151,700,l),
(151,262,l)
);
},
{
closed = 1;
nodes = (
(355,642,l),
(355,700,l),
(17,700,l),
(17,642,l)
);
},
{
closed = 1;
nodes = (
(483,262,l),
(483,646,l),
(596,262,l),
(685,262,l),
(804,646,l),
(804,262,l),
(870,262,l),
(870,700,l),
(762,700,l),
(638,304,l),
(644,304,l),
(527,700,l),
(418,700,l),
(418,262,l)
);
}
);
width = 945;
}
);
unicode = 8482;
},
{
color = 6;
glyphname = degree;
layers = (
{
layerId = m01;
shapes = (
{
closed = 1;
nodes = (
(302,402,o),
(369,469,o),
(369,558,cs),
(369,646,o),
(304,710,o),
(213,710,cs),
(122,710,o),
(57,646,o),
(57,558,cs),
(57,469,o),
(124,402,o),
(213,402,cs)
);
},
{
closed = 1;
nodes = (
(162,467,o),
(128,503,o),
(128,556,cs),
(128,609,o),
(163,645,o),
(213,645,cs),
(263,645,o),
(298,609,o),
(298,556,cs),
(298,503,o),
(264,467,o),
(213,467,cs)
);
}
);
width = 426;
}
);
unicode = 176;
},
{
color = 6;
glyphname = bar;
kernLeft = bar;
kernRight = bar;
layers = (
{
layerId = m01;
shapes = (
{
closed = 1;
nodes = (
(180,-150,l),
(180,760,l),
(90,760,l),
(90,-150,l)
);
}
);
width = 270;
}
);
unicode = 124;
},
{
color = 6;
glyphname = brokenbar;
kernLeft = bar;
kernRight = bar;
layers = (
{
layerId = m01;
shapes = (
{
closed = 1;
nodes = (
(180,380,l),
(180,760,l),
(90,760,l),
(90,380,l)
);
},
{
closed = 1;
nodes = (
(180,-150,l),
(180,230,l),
(90,230,l),
(90,-150,l)
);
}
);
width = 270;
}
);
unicode = 166;
},
{
color = 6;
glyphname = dagger;
layers = (
{
layerId = m01;
shapes = (
{
closed = 1;
nodes = (
(341,-150,l),
(341,760,l),
(251,760,l),
(251,-150,l)
);
},
{
closed = 1;
nodes = (
(565,416,l),
(565,488,l),
(27,488,l),
(27,416,l)
);
}
);
width = 592;
}
);
unicode = 8224;
},
{
color = 6;
glyphname = daggerdbl;
layers = (
{
layerId = m01;
shapes = (
{
closed = 1;
nodes = (
(367,-150,l),
(367,760,l),
(277,760,l),
(277,-150,l)
);
},
{
closed = 1;
nodes = (
(591,124,l),
(591,196,l),
(53,196,l),
(53,124,l)
);
},
{
closed = 1;
nodes = (
(591,416,l),
(591,488,l),
(53,488,l),
(53,416,l)
);
}
);
width = 644;
}
);
unicode = 8225;
},
{
color = 6;
glyphname = copyright.sups;
layers = (
{
layerId = m01;
shapes = (
{
closed = 1;
nodes = (
(364,468,o),
(446,549,o),
(446,663,cs),
(446,775,o),
(364,856,o),
(251,856,cs),
(138,856,o),
(56,775,o),
(56,663,cs),
(56,549,o),
(138,468,o),
(251,468,cs)
);
},
{
closed = 1;
nodes = (
(161,504,o),
(97,571,o),
(97,663,cs),
(97,755,o),
(161,820,o),
(251,820,cs),
(341,820,o),
(405,755,o),
(405,663,cs),
(405,571,o),
(341,504,o),
(251,504,cs)
);
},
{
closed = 1;
nodes = (
(295,560,o),
(333,589,o),
(334,637,c),
(297,637,l),
(295,609,o),
(274,596,o),
(253,596,cs),
(219,596,o),
(200,620,o),
(200,664,cs),
(200,708,o),
(220,731,o),
(254,731,cs),
(275,731,o),
(295,719,o),
(297,694,c),
(334,694,l),
(332,740,o),
(300,767,o),
(253,767,cs),
(193,767,o),
(158,724,o),
(158,664,cs),
(158,605,o),
(192,560,o),
(252,560,cs)
);
}
);
width = 502;
}
);
},
{
color = 6;
glyphname = registered.sups;
layers = (
{
layerId = m01;
shapes = (
{
closed = 1;
nodes = (
(220,562,l),
(220,645,l),
(226,645,ls),
(269,645,o),
(279,627,o),
(286,570,cs),
(287,562,l),
(327,562,l),
(326,570,ls),
(318,632,o),
(301,655,o),
(265,665,c),
(267,657,l),
(304,659,o),
(327,676,o),
(327,709,cs),
(327,744,o),
(303,765,o),
(257,765,cs),
(181,765,l),
(181,562,l)
);
},
{
closed = 1;
nodes = (
(220,732,l),
(249,732,ls),
(279,732,o),
(287,724,o),
(287,706,cs),
(287,689,o),
(278,677,o),
(252,677,cs),
(220,677,l)
);
},
{
closed = 1;
nodes = (
(364,468,o),
(446,549,o),
(446,663,cs),
(446,775,o),
(364,856,o),
(251,856,cs),
(138,856,o),
(56,775,o),
(56,663,cs),
(56,549,o),
(138,468,o),
(251,468,cs)
);
},
{
closed = 1;
nodes = (
(161,504,o),
(97,571,o),
(97,663,cs),
(97,755,o),
(161,820,o),
(251,820,cs),
(341,820,o),
(405,755,o),
(405,663,cs),
(405,571,o),
(341,504,o),
(251,504,cs)
);
}
);
width = 502;
}
);
},
{
color = 6;
glyphname = trademark.sups;
layers = (
{
guides = (
{
pos = (507,765);
},
{
pos = (514,562);
},
{
pos = (507,732);
}
);
layerId = m01;
shapes = (
{
closed = 1;
nodes = (
(157,562,l),
(157,765,l),
(118,765,l),
(118,562,l)
);
},
{
closed = 1;
nodes = (
(219,732,l),
(219,765,l),
(56,765,l),
(56,732,l)
);
},
{
closed = 1;
nodes = (
(281,562,l),
(281,730,l),
(327,562,l),
(376,562,l),
(426,730,l),
(426,562,l),
(462,562,l),
(462,765,l),
(402,765,l),
(351,591,l),
(353,591,l),
(305,765,l),
(245,765,l),
(245,562,l)
);
}
);
width = 518;
}
);
},
{
color = 6;
glyphname = H.circled;
kernLeft = copyright;
kernRight = copyright;
layers = (
{
anchors = (
{
name = bottom;
pos = (373,0);
},
{
name = center;
pos = (373,350);
},
{
name = top;
pos = (373,700);
},
{
name = topleft;
pos = (26,700);
}
);
layerId = m01;
shapes = (
{
closed = 1;
nodes = (
(614,-10,o),
(774,150,o),
(774,351,cs),
(774,550,o),
(614,710,o),
(415,710,cs),
(216,710,o),
(56,550,o),
(56,351,cs),
(56,150,o),
(216,-10,o),
(415,-10,cs)
);
},
{
closed = 1;
nodes = (
(244,38,o),
(105,181,o),
(105,351,cs),
(105,522,o),
(244,662,o),
(415,662,cs),
(586,662,o),
(725,522,o),
(725,351,cs),
(725,181,o),
(586,38,o),
(415,38,cs)
);
},
{
closed = 1;
nodes = (
(308,154,l),
(308,328,l),
(522,328,l),
(522,154,l),
(570,154,l),
(570,547,l),
(522,547,l),
(522,376,l),
(308,376,l),
(308,547,l),
(260,547,l),
(260,154,l)
);
}
);
width = 830;
}
);
unicode = 9405;
},
{
color = 6;
glyphname = H.circled.sups;
layers = (
{
layerId = m01;
shapes = (
{
closed = 1;
nodes = (
(130,445,o),
(56,518,o),
(56,610,cs),
(56,702,o),
(130,775,o),
(221,775,cs),
(312,775,o),
(386,702,o),
(386,610,cs),
(386,518,o),
(312,445,o),
(221,445,cs)
);
},
{
closed = 1;
nodes = (
(300,467,o),
(363,532,o),
(363,610,cs),
(363,689,o),
(300,753,o),
(221,753,cs),
(143,753,o),
(79,689,o),
(79,610,cs),
(79,532,o),
(143,467,o),
(221,467,cs)
);
},
{
closed = 1;
nodes = (
(270,520,l),
(270,600,l),
(172,600,l),
(172,520,l),
(150,520,l),
(150,700,l),
(172,700,l),
(172,622,l),
(270,622,l),
(270,700,l),
(292,700,l),
(292,520,l)
);
}
);
width = 442;
}
);
},
{
color = 3;
glyphname = cent;
layers = (
{
layerId = m01;
shapes = (
{
closed = 1;
nodes = (
(326,-148,l),
(326,669,l),
(260,669,l),
(260,-148,l)
);
},
{
pos = (10,0);
ref = c;
}
);
width = 559;
}
);
unicode = 162;
},
{
color = 6;
glyphname = currency;
layers = (
{
guides = (
{
angle = 90;
pos = (310,515);
},
{
angle = 180;
pos = (135,338);
}
);
layerId = m01;
shapes = (
{
closed = 1;
nodes = (
(430,125,o),
(522,215,o),
(522,338,cs),
(522,461,o),
(430,551,o),
(308,551,cs),
(185,551,o),
(93,461,o),
(93,338,cs),
(93,215,o),
(185,125,o),
(308,125,cs)
);
},
{
closed = 1;
nodes = (
(212,188,l),
(154,242,l),
(56,144,l),
(112,89,l)
);
},
{
closed = 1;
nodes = (
(212,488,l),
(112,587,l),
(56,532,l),
(154,434,l)
);
},
{
closed = 1;
nodes = (
(227,197,o),
(173,252,o),
(173,338,cs),
(173,424,o),
(227,479,o),
(308,479,cs),
(388,479,o),
(442,424,o),
(442,338,cs),
(442,252,o),
(388,197,o),
(308,197,cs)
);
},
{
closed = 1;
nodes = (
(560,144,l),
(462,242,l),
(404,188,l),
(504,89,l)
);
},
{
closed = 1;
nodes = (
(560,532,l),
(504,587,l),
(404,488,l),
(462,434,l)
);
}
);
width = 616;
}
);
unicode = 164;
},
{
color = 6;
glyphname = dollar;
layers = (
{
layerId = m01;
shapes = (
{
closed = 1;
nodes = (
(421,-10,o),
(510,70,o),
(510,199,cs),
(510,294,o),
(454,352,o),
(337,382,cs),
(252,404,ls),
(174,424,o),
(134,455,o),
(134,524,cs),
(134,598,o),
(183,640,o),
(269,640,cs),
(348,640,o),
(394,601,o),
(408,524,c),
(498,524,l),
(490,641,o),
(406,710,o),
(271,710,cs),
(133,710,o),
(45,637,o),
(45,518,cs),
(45,419,o),
(105,359,o),
(210,331,cs),
(320,302,ls),
(384,285,o),
(417,247,o),
(417,190,cs),
(417,111,o),
(364,60,o),
(278,60,cs),
(185,60,o),
(138,114,o),
(135,205,c),
(42,205,l),
(48,64,o),
(133,-10,o),
(276,-10,cs)
);
},
{
closed = 1;
nodes = (
(306,-110,l),
(306,810,l),
(240,810,l),
(240,-110,l)
);
}
);
width = 547;
}
);
unicode = 36;
},
{
color = 6;
glyphname = euro;
layers = (
{
layerId = m01;
shapes = (
{
closed = 1;
nodes = (
(564,-10,o),
(659,86,o),
(663,230,c),
(568,230,l),
(562,120,o),
(514,65,o),
(416,65,cs),
(300,65,o),
(249,146,o),
(249,350,cs),
(249,550,o),
(302,635,o),
(422,635,cs),
(514,635,o),
(563,583,o),
(568,480,c),
(662,480,l),
(658,629,o),
(574,710,o),
(426,710,cs),
(247,710,o),
(154,587,o),
(154,350,cs),
(154,112,o),
(246,-10,o),
(416,-10,cs)
);
},
{
closed = 1;
nodes = (
(462,254,l),
(404,205,l),
(452,361,l),
(484,318,l),
(58,318,l),
(58,254,l)
);
},
{
closed = 1;
nodes = (
(506,386,l),
(447,343,l),
(498,499,l),
(529,450,l),
(58,450,l),
(58,386,l)
);
}
);
width = 717;
}
);
unicode = 8364;
},
{
color = 6;
glyphname = sterling;
layers = (
{
guides = (
{
pos = (281,480);
}
);
layerId = m01;
shapes = (
{
closed = 1;
nodes = (
(54,48,ls),
(175,48,o),
(220,85,o),
(220,188,cs),
(220,489,ls),
(220,589,o),
(261,638,o),
(340,638,cs),
(412,638,o),
(451,598,o),
(451,523,cs),
(451,480,l),
(541,480,l),
(541,523,ls),
(541,639,o),
(465,710,o),
(340,710,cs),
(209,710,o),
(130,631,o),
(130,491,cs),
(130,185,ls),
(130,120,o),
(109,78,o),
(48,68,cs),
(48,68,l),
(48,48,l)
);
},
{
closed = 1;
nodes = (
(541,0,l),
(541,72,l),
(129,72,l),
(48,68,l),
(48,0,l)
);
},
{
closed = 1;
nodes = (
(441,289,l),
(441,353,l),
(48,353,l),
(48,289,l)
);
}
);
width = 590;
}
);
unicode = 163;
},
{
color = 6;
glyphname = yen;
layers = (
{
layerId = m01;
shapes = (
{
closed = 1;
nodes = (
(361,0,l),
(361,286,l),
(593,700,l),
(499,700,l),
(322,360,l),
(136,700,l),
(36,700,l),
(271,286,l),
(271,0,l)
);
},
{
closed = 1;
nodes = (
(253,364,l),
(253,428,l),
(65,428,l),
(65,364,l)
);
},
{
closed = 1;
nodes = (
(572,222,l),
(572,286,l),
(65,286,l),
(65,222,l)
);
},
{
closed = 1;
nodes = (
(572,364,l),
(572,428,l),
(397,428,l),
(397,364,l)
);
}
);
width = 633;
}
);
unicode = 165;
},
{
color = 6;
glyphname = plus;
layers = (
{
layerId = m01;
shapes = (
{
closed = 1;
nodes = (
(327,97,l),
(327,565,l),
(251,565,l),
(251,97,l)
);
},
{
closed = 1;
nodes = (
(528,295,l),
(528,365,l),
(50,365,l),
(50,295,l)
);
}
);
width = 578;
}
);
unicode = 43;
},
{
color = 6;
glyphname = minus;
layers = (
{
layerId = m01;
shapes = (
{
closed = 1;
nodes = (
(528,295,l),
(528,365,l),
(50,365,l),
(50,295,l)
);
}
);
width = 578;
}
);
unicode = 8722;
},
{
color = 6;
glyphname = multiply;
layers = (
{
guides = (
{
pos = (239,528);
},
{
angle = 90;
pos = (93,383);
},
{
angle = 90;
pos = (489,415);
},
{
pos = (439,132);
}
);
layerId = m01;
shapes = (
{
closed = 1;
nodes = (
(289,282,l),
(438,133,l),
(486,181,l),
(337,330,l),
(486,479,l),
(438,527,l),
(289,378,l),
(140,527,l),
(92,479,l),
(241,330,l),
(92,181,l),
(140,133,l)
);
}
);
width = 578;
}
);
unicode = 215;
},
{
color = 3;
glyphname = divide;
layers = (
{
layerId = m01;
shapes = (
{
closed = 1;
nodes = (
(528,302,l),
(528,372,l),
(50,372,l),
(50,302,l)
);
},
{
pos = (188,137);
ref = period;
scale = (0.9434,0.9434);
},
{
pos = (188,437);
ref = period;
scale = (0.9434,0.9434);
}
);
width = 578;
}
);
unicode = 247;
},
{
color = 6;
glyphname = equal;
layers = (
{
layerId = m01;
shapes = (
{
closed = 1;
nodes = (
(528,383,l),
(528,453,l),
(50,453,l),
(50,383,l)
);
},
{
closed = 1;
nodes = (
(528,206,l),
(528,276,l),
(50,276,l),
(50,206,l)
);
}
);
width = 578;
}
);
unicode = 61;
},
{
color = 6;
glyphname = notequal;
layers = (
{
layerId = m01;
shapes = (
{
closed = 1;
nodes = (
(197,95,l),
(457,565,l),
(385,565,l),
(125,95,l)
);
},
{
closed = 1;
nodes = (
(530,206,l),
(530,276,l),
(52,276,l),
(52,206,l)
);
},
{
closed = 1;
nodes = (
(530,383,l),
(530,453,l),
(52,453,l),
(52,383,l)
);
}
);
width = 578;
}
);
unicode = 8800;
},
{
color = 6;
glyphname = greater;
layers = (
{
layerId = m01;
shapes = (
{
closed = 1;
nodes = (
(530,296,l),
(530,367,l),
(52,555,l),
(52,475,l),
(477,316,l),
(477,347,l),
(52,188,l),
(52,108,l)
);
}
);
width = 578;
}
);
unicode = 62;
},
{
color = 6;
glyphname = less;
layers = (
{
layerId = m01;
shapes = (
{
closed = 1;
nodes = (
(526,188,l),
(101,347,l),
(101,316,l),
(526,475,l),
(526,555,l),
(48,367,l),
(48,296,l),
(526,108,l)
);
}
);
width = 578;
}
);
unicode = 60;
},
{
color = 6;
glyphname = greaterequal;
layers = (
{
layerId = m01;
shapes = (
{
closed = 1;
nodes = (
(527,208,l),
(102,357,l),
(102,326,l),
(527,475,l),
(527,555,l),
(49,377,l),
(49,306,l),
(527,128,l)
);
},
{
closed = 1;
nodes = (
(527,0,l),
(527,70,l),
(47,70,l),
(47,0,l)
);
}
);
width = 578;
}
);
unicode = 8805;
},
{
color = 6;
glyphname = lessequal;
layers = (
{
layerId = m01;
shapes = (
{
closed = 1;
nodes = (
(529,306,l),
(529,377,l),
(51,555,l),
(51,475,l),
(476,326,l),
(476,357,l),
(51,208,l),
(51,128,l)
);
},
{
closed = 1;
nodes = (
(531,0,l),
(531,70,l),
(51,70,l),
(51,0,l)
);
}
);
width = 578;
}
);
unicode = 8804;
},
{
color = 6;
glyphname = plusminus;
layers = (
{
layerId = m01;
shapes = (
{
closed = 1;
nodes = (
(529,0,l),
(529,70,l),
(49,70,l),
(49,0,l)
);
},
{
closed = 1;
nodes = (
(528,295,l),
(528,365,l),
(50,365,l),
(50,295,l)
);
},
{
closed = 1;
nodes = (
(327,127,l),
(327,535,l),
(251,535,l),
(251,127,l)
);
}
);
width = 578;
}
);
unicode = 177;
},
{
color = 6;
glyphname = approxequal;
layers = (
{
layerId = m01;
shapes = (
{
closed = 1;
nodes = (
(445,170,o),
(480,182,o),
(528,216,c),
(528,295,l),
(473,252,o),
(441,237,o),
(403,237,cs),
(374,237,o),
(353,244,o),
(312,269,cs),
(293,280,ls),
(254,304,o),
(220,314,o),
(182,314,cs),
(139,314,o),
(100,300,o),
(50,266,c),
(50,187,l),
(102,228,o),
(135,243,o),
(174,243,cs),
(202,243,o),
(222,237,o),
(265,213,cs),
(285,202,ls),
(326,179,o),
(358,170,o),
(398,170,cs)
);
},
{
closed = 1;
nodes = (
(445,350,o),
(480,362,o),
(528,396,c),
(528,475,l),
(473,432,o),
(441,417,o),
(403,417,cs),
(374,417,o),
(354,425,o),
(312,449,cs),
(293,460,ls),
(255,482,o),
(221,492,o),
(182,492,cs),
(138,492,o),
(99,478,o),
(50,446,c),
(50,367,l),
(103,409,o),
(137,425,o),
(174,425,cs),
(207,425,o),
(228,413,o),
(265,393,cs),
(285,382,ls),
(326,359,o),
(358,350,o),
(398,350,cs)
);
}
);
width = 578;
}
);
unicode = 8776;
},
{
color = 6;
glyphname = asciitilde;
layers = (
{
layerId = m01;
shapes = (
{
closed = 1;
nodes = (
(464,263,o),
(512,314,o),
(512,401,c),
(442,401,l),
(442,354,o),
(419,330,o),
(384,330,cs),
(321,330,o),
(302,411,o),
(198,411,cs),
(116,411,o),
(68,360,o),
(68,273,c),
(138,273,l),
(138,320,o),
(161,344,o),
(196,344,cs),
(259,344,o),
(278,263,o),
(382,263,cs)
);
}
);
width = 578;
}
);
unicode = 126;
},
{
color = 6;
glyphname = logicalnot;
layers = (
{
layerId = m01;
shapes = (
{
closed = 1;
nodes = (
(501,392,l),
(501,462,l),
(63,462,l),
(63,392,l)
);
},
{
closed = 1;
nodes = (
(501,194,l),
(501,446,l),
(425,446,l),
(425,194,l)
);
}
);
width = 578;
}
);
unicode = 172;
},
{
color = 6;
glyphname = asciicircum;
layers = (
{
layerId = m01;
shapes = (
{
closed = 1;
nodes = (
(172,338,l),
(304,660,l),
(273,660,l),
(405,338,l),
(486,338,l),
(327,700,l),
(250,700,l),
(91,338,l)
);
}
);
width = 578;
}
);
unicode = 94;
},
{
color = 6;
glyphname = infinity;
layers = (
{
layerId = m01;
shapes = (
{
closed = 1;
nodes = (
(282,163,o),
(336,195,o),
(378,260,c),
(420,192,o),
(470,163,o),
(544,163,cs),
(647,163,o),
(714,228,o),
(714,327,cs),
(714,424,o),
(646,493,o),
(549,493,cs),
(483,493,o),
(430,462,o),
(387,396,c),
(345,464,o),
(295,493,o),
(221,493,cs),
(118,493,o),
(51,428,o),
(51,329,cs),
(51,231,o),
(119,163,o),
(215,163,cs)
);
},
{
closed = 1;
nodes = (
(165,225,o),
(127,267,o),
(127,329,cs),
(127,392,o),
(162,430,o),
(221,430,cs),
(271,430,o),
(309,396,o),
(346,318,c),
(307,253,o),
(270,225,o),
(223,225,cs)
);
},
{
closed = 1;
nodes = (
(494,226,o),
(456,260,o),
(419,338,c),
(458,403,o),
(495,431,o),
(542,431,cs),
(600,431,o),
(638,389,o),
(638,327,cs),
(638,264,o),
(603,226,o),
(544,226,cs)
);
}
);
width = 764;
}
);
unicode = 8734;
},
{
color = 6;
glyphname = integral;
layers = (
{
layerId = m01;
shapes = (
{
closed = 1;
nodes = (
(245,0,l),
(245,557,ls),
(245,625,o),
(263,630,o),
(312,630,cs),
(383,630,l),
(383,700,l),
(283,700,ls),
(195,700,o),
(155,673,o),
(155,564,cs),
(155,0,l)
);
},
{
closed = 1;
nodes = (
(117,-150,ls),
(205,-150,o),
(245,-123,o),
(245,-14,cs),
(245,550,l),
(155,550,l),
(155,-7,ls),
(155,-75,o),
(137,-80,o),
(88,-80,cs),
(17,-80,l),
(17,-150,l)
);
}
);
width = 401;
}
);
unicode = 8747;
},
{
color = 6;
glyphname = product;
layers = (
{
layerId = m01;
shapes = (
{
closed = 1;
nodes = (
(541,-150,l),
(541,700,l),
(451,700,l),
(451,-150,l)
);
},
{
closed = 1;
nodes = (
(199,-150,l),
(199,700,l),
(109,700,l),
(109,-150,l)
);
},
{
closed = 1;
nodes = (
(637,628,l),
(637,700,l),
(33,700,l),
(33,628,l)
);
}
);
width = 667;
}
);
unicode = 8719;
},
{
color = 6;
glyphname = summation;
layers = (
{
layerId = m01;
shapes = (
{
closed = 1;
nodes = (
(490,-150,l),
(490,-80,l),
(138,-80,l),
(395,245,l),
(395,305,l),
(142,630,l),
(490,630,l),
(490,700,l),
(32,700,l),
(32,640,l),
(341,244,l),
(346,308,l),
(32,-90,l),
(32,-150,l)
);
}
);
width = 526;
}
);
unicode = 8721;
},
{
color = 6;
glyphname = radical;
layers = (
{
layerId = m01;
shapes = (
{
closed = 1;
nodes = (
(415,-150,l),
(673,700,l),
(585,700,l),
(353,-86,l),
(359,-85,l),
(219,370,l),
(127,370,l),
(299,-150,l)
);
},
{
closed = 1;
nodes = (
(219,300,l),
(219,370,l),
(48,370,l),
(48,300,l)
);
}
);
width = 693;
}
);
unicode = 8730;
},
{
color = 6;
glyphname = partialdiff;
layers = (
{
layerId = m01;
shapes = (
{
closed = 1;
nodes = (
(417,-10,o),
(499,113,o),
(499,347,cs),
(499,597,o),
(394,700,o),
(192,700,cs),
(71,700,l),
(71,630,l),
(195,630,ls),
(354,630,o),
(417,552,o),
(406,303,c),
(414,333,l),
(384,399,o),
(323,436,o),
(245,436,cs),
(124,436,o),
(43,349,o),
(43,217,cs),
(43,81,o),
(131,-10,o),
(261,-10,cs)
);
},
{
closed = 1;
nodes = (
(187,60,o),
(136,122,o),
(136,216,cs),
(136,309,o),
(183,366,o),
(259,366,cs),
(338,366,o),
(394,305,o),
(394,219,cs),
(394,124,o),
(342,60,o),
(264,60,cs)
);
}
);
width = 552;
}
);
unicode = 8706;
},
{
color = 6;
glyphname = percent;
kernLeft = percent;
layers = (
{
guides = (
{
pos = (85,324);
}
);
layerId = m01;
shapes = (
{
closed = 1;
nodes = (
(280,318,o),
(337,388,o),
(337,512,cs),
(337,636,o),
(280,706,o),
(183,706,cs),
(86,706,o),
(29,636,o),
(29,512,cs),
(29,388,o),
(86,318,o),
(183,318,cs)
);
},
{
closed = 1;
nodes = (
(133,380,o),
(105,426,o),
(105,512,cs),
(105,599,o),
(133,644,o),
(183,644,cs),
(233,644,o),
(261,599,o),
(261,512,cs),
(261,426,o),
(233,380,o),
(183,380,cs)
);
},
{
closed = 1;
nodes = (
(738,-6,o),
(795,64,o),
(795,188,cs),
(795,312,o),
(738,382,o),
(641,382,cs),
(544,382,o),
(487,312,o),
(487,188,cs),
(487,64,o),
(544,-6,o),
(641,-6,cs)
);
},
{
closed = 1;
nodes = (
(591,56,o),
(563,102,o),
(563,188,cs),
(563,275,o),
(591,320,o),
(641,320,cs),
(691,320,o),
(719,275,o),
(719,188,cs),
(719,102,o),
(691,56,o),
(641,56,cs)
);
},
{
closed = 1;
nodes = (
(241,0,l),
(658,700,l),
(581,700,l),
(164,0,l)
);
}
);
width = 824;
}
);
unicode = 37;
},
{
color = 6;
glyphname = perthousand;
kernLeft = percent;
layers = (
{
layerId = m01;
shapes = (
{
closed = 1;
nodes = (
(280,318,o),
(337,388,o),
(337,512,cs),
(337,636,o),
(280,706,o),
(183,706,cs),
(86,706,o),
(29,636,o),
(29,512,cs),
(29,388,o),
(86,318,o),
(183,318,cs)
);
},
{
closed = 1;
nodes = (
(133,380,o),
(105,426,o),
(105,512,cs),
(105,599,o),
(133,644,o),
(183,644,cs),
(233,644,o),
(261,599,o),
(261,512,cs),
(261,426,o),
(233,380,o),
(183,380,cs)
);
},
{
closed = 1;
nodes = (
(738,-6,o),
(795,64,o),
(795,188,cs),
(795,312,o),
(738,382,o),
(641,382,cs),
(544,382,o),
(487,312,o),
(487,188,cs),
(487,64,o),
(544,-6,o),
(641,-6,cs)
);
},
{
closed = 1;
nodes = (
(591,56,o),
(563,102,o),
(563,188,cs),
(563,275,o),
(591,320,o),
(641,320,cs),
(691,320,o),
(719,275,o),
(719,188,cs),
(719,102,o),
(691,56,o),
(641,56,cs)
);
},
{
closed = 1;
nodes = (
(1108,-6,o),
(1165,64,o),
(1165,188,cs),
(1165,312,o),
(1108,382,o),
(1011,382,cs),
(914,382,o),
(857,312,o),
(857,188,cs),
(857,64,o),
(914,-6,o),
(1011,-6,cs)
);
},
{
closed = 1;
nodes = (
(961,56,o),
(933,102,o),
(933,188,cs),
(933,275,o),
(961,320,o),
(1011,320,cs),
(1061,320,o),
(1089,275,o),
(1089,188,cs),
(1089,102,o),
(1061,56,o),
(1011,56,cs)
);
},
{
closed = 1;
nodes = (
(241,0,l),
(658,700,l),
(581,700,l),
(164,0,l)
);
}
);
width = 1193;
}
);
unicode = 8240;
},
{
color = 6;
glyphname = upArrow;
layers = (
{
layerId = m01;
shapes = (
{
closed = 1;
nodes = (
(349,0,l),
(349,644,l),
(315,628,l),
(580,358,l),
(516,360,l),
(596,440,l),
(326,710,l),
(314,710,l),
(302,710,l),
(32,440,l),
(112,360,l),
(48,358,l),
(313,628,l),
(279,644,l),
(279,0,l)
);
}
);
width = 628;
}
);
unicode = 8593;
},
{
color = 6;
glyphname = northEastArrow;
layers = (
{
layerId = m01;
shapes = (
{
closed = 1;
nodes = (
(586,621,l),
(552,635,l),
(549,302,l),
(616,302,l),
(616,683,l),
(599,700,l),
(218,700,l),
(218,633,l),
(551,636,l),
(537,670,l),
(27,161,l),
(78,112,l)
);
}
);
width = 669;
}
);
unicode = 8599;
},
{
color = 6;
glyphname = rightArrow;
layers = (
{
guides = (
{
angle = 135;
pos = (766,485);
},
{
angle = 45;
pos = (594,576);
}
);
layerId = m01;
shapes = (
{
closed = 1;
nodes = (
(862,313,l),
(862,325,l),
(862,337,l),
(592,607,l),
(544,559,l),
(782,326,l),
(796,360,l),
(56,360,l),
(56,290,l),
(796,290,l),
(782,324,l),
(544,91,l),
(592,43,l)
);
}
);
width = 916;
}
);
unicode = 8594;
},
{
color = 6;
glyphname = southEastArrow;
layers = (
{
guides = (
{
pos = (-158,588);
}
);
layerId = m01;
shapes = (
{
closed = 1;
nodes = (
(27,539,l),
(537,30,l),
(551,64,l),
(218,67,l),
(218,0,l),
(599,0,l),
(616,17,l),
(616,398,l),
(549,398,l),
(552,65,l),
(586,79,l),
(78,588,l)
);
}
);
width = 669;
}
);
unicode = 8600;
},
{
color = 6;
glyphname = downArrow;
layers = (
{
layerId = m01;
shapes = (
{
closed = 1;
nodes = (
(314,-10,l),
(326,-10,l),
(596,260,l),
(516,340,l),
(580,342,l),
(315,72,l),
(349,56,l),
(349,700,l),
(279,700,l),
(279,56,l),
(313,72,l),
(48,342,l),
(112,340,l),
(32,260,l),
(302,-10,l)
);
}
);
width = 628;
}
);
unicode = 8595;
},
{
color = 6;
glyphname = southWestArrow;
layers = (
{
layerId = m01;
shapes = (
{
closed = 1;
nodes = (
(83,79,l),
(117,65,l),
(120,398,l),
(53,398,l),
(53,17,l),
(70,0,l),
(451,0,l),
(451,67,l),
(118,64,l),
(132,30,l),
(642,539,l),
(591,588,l)
);
}
);
width = 669;
}
);
unicode = 8601;
},
{
color = 6;
glyphname = leftArrow;
layers = (
{
layerId = m01;
shapes = (
{
closed = 1;
nodes = (
(372,91,l),
(134,324,l),
(120,290,l),
(860,290,l),
(860,360,l),
(120,360,l),
(134,326,l),
(372,559,l),
(324,607,l),
(54,337,l),
(54,325,l),
(54,313,l),
(324,43,l)
);
}
);
width = 916;
}
);
unicode = 8592;
},
{
color = 6;
glyphname = northWestArrow;
layers = (
{
layerId = m01;
shapes = (
{
closed = 1;
nodes = (
(642,161,l),
(132,670,l),
(118,636,l),
(451,633,l),
(451,700,l),
(70,700,l),
(53,683,l),
(53,302,l),
(120,302,l),
(117,635,l),
(83,621,l),
(591,112,l)
);
}
);
width = 669;
}
);
unicode = 8598;
},
{
color = 6;
glyphname = whiteUpperLeftQuadrantSquare;
layers = (
{
layerId = m01;
shapes = (
{
closed = 1;
nodes = (
(3089,-257,o),
(3180,-150,o),
(3180,-9,c),
(3180,521,l),
(3071,521,l),
(3071,445,l),
(3039,490,o),
(2976,529,o),
(2891,529,cs),
(2754,529,o),
(2645,423,o),
(2646,262,cs),
(2646,101,o),
(2755,-9,o),
(2891,-9,cs),
(2976,-9,o),
(3039,33,o),
(3072,77,c),
(3072,-9,l),
(3072,-113,o),
(3009,-164,o),
(2926,-164,cs),
(2851,-164,o),
(2794,-127,o),
(2778,-73,c),
(2671,-73,l),
(2684,-189,o),
(2787,-257,o),
(2926,-257,cs)
);
},
{
closed = 1;
nodes = (
(198,0,l),
(198,306,l),
(541,306,l),
(541,0,l),
(649,0,l),
(649,700,l),
(541,700,l),
(541,394,l),
(198,394,l),
(198,700,l),
(90,700,l),
(90,0,l)
);
},
{
closed = 1;
nodes = (
(1104,-8,o),
(1186,65,o),
(1216,155,c),
(1100,155,l),
(1079,114,o),
(1043,82,o),
(977,82,cs),
(897,82,o),
(836,134,o),
(828,220,c),
(1226,220,l),
(1229,238,o),
(1230,255,o),
(1230,273,cs),
(1230,427,o),
(1125,530,o),
(977,530,cs),
(822,530,o),
(717,425,o),
(717,261,cs),
(717,98,o),
(827,-8,o),
(977,-8,cs)
);
},
{
closed = 1;
nodes = (
(840,390,o),
(899,439,o),
(971,440,cs),
(1052,440,o),
(1115,388,o),
(1117,308,c),
(829,308,l)
);
},
{
closed = 1;
nodes = (
(1480,86,o),
(1402,151,o),
(1402,264,cs),
(1402,376,o),
(1480,437,o),
(1560,437,cs),
(1641,437,o),
(1718,373,o),
(1718,262,cs),
(1718,150,o),
(1641,86,o),
(1560,86,cs)
);
},
{
closed = 1;
nodes = (
(1622,-8,o),
(1685,32,o),
(1718,79,c),
(1718,1,l),
(1826,1,l),
(1826,700,l),
(1718,700,l),
(1718,448,l),
(1678,497,o),
(1606,530,o),
(1538,530,cs),
(1400,530,o),
(1291,424,o),
(1291,264,cs),
(1291,103,o),
(1400,-8,o),
(1537,-8,cs)
);
},
{
closed = 1;
nodes = (
(2209,0,l),
(2407,520,l),
(2293,520,l),
(2146,96,l),
(1998,520,l),
(1883,520,l),
(2080,0,l)
);
},
{
closed = 1;
nodes = (
(2581,0,l),
(2581,520,l),
(2473,520,l),
(2473,0,l)
);
},
{
closed = 1;
nodes = (
(2562,584,o),
(2590,612,o),
(2590,646,cs),
(2590,681,o),
(2562,708,o),
(2527,708,cs),
(2492,708,o),
(2465,682,o),
(2465,646,cs),
(2465,611,o),
(2492,584,o),
(2527,584,cs)
);
},
{
closed = 1;
nodes = (
(2833,86,o),
(2756,151,o),
(2756,263,cs),
(2756,376,o),
(2833,436,o),
(2914,436,cs),
(2995,436,o),
(3072,373,o),
(3071,261,cs),
(3071,149,o),
(2995,86,o),
(2914,86,cs)
);
},
{
closed = 1;
nodes = (
(3449,260,o),
(3509,320,o),
(3509,395,cs),
(3509,469,o),
(3449,529,o),
(3375,529,cs),
(3301,529,o),
(3241,469,o),
(3241,395,cs),
(3241,320,o),
(3301,260,o),
(3375,260,cs)
);
},
{
closed = 1;
nodes = (
(3311,278,o),
(3259,331,o),
(3259,395,cs),
(3259,459,o),
(3311,511,o),
(3375,511,cs),
(3439,511,o),
(3491,459,o),
(3491,395,cs),
(3491,331,o),
(3439,278,o),
(3375,278,cs)
);
},
{
closed = 1;
nodes = (
(3335,321,l),
(3335,386,l),
(3415,386,l),
(3415,321,l),
(3433,321,l),
(3433,468,l),
(3415,468,l),
(3415,404,l),
(3335,404,l),
(3335,468,l),
(3317,468,l),
(3317,321,l)
);
}
);
width = 3509;
}
);
metricLeft = H;
unicode = 9712;
},
{
color = 6;
glyphname = dieresiscomb;
layers = (
{
anchors = (
{
name = _top;
pos = (286,520);
},
{
name = top;
pos = (286,700);
}
);
guides = (
{
angle = 90;
pos = (286,520);
}
);
layerId = m01;
shapes = (
{
closed = 1;
nodes = (
(416,586,o),
(441,609,o),
(441,642,cs),
(441,674,o),
(416,697,o),
(386,697,cs),
(355,697,o),
(330,674,o),
(330,642,cs),
(330,609,o),
(355,586,o),
(386,586,cs)
);
},
{
closed = 1;
nodes = (
(217,586,o),
(242,609,o),
(242,642,cs),
(242,674,o),
(217,697,o),
(187,697,cs),
(156,697,o),
(131,674,o),
(131,642,cs),
(131,609,o),
(156,586,o),
(187,586,cs)
);
}
);
width = 0;
}
);
unicode = 776;
},
{
color = 6;
glyphname = dotaccentcomb;
layers = (
{
anchors = (
{
name = _top;
pos = (109,520);
},
{
name = top;
pos = (109,700);
}
);
layerId = m01;
shapes = (
{
closed = 1;
nodes = (
(141,583,o),
(167,607,o),
(167,642,cs),
(167,676,o),
(141,700,o),
(109,700,cs),
(76,700,o),
(50,676,o),
(50,642,cs),
(50,607,o),
(76,583,o),
(109,583,cs)
);
}
);
width = 0;
}
);
unicode = 775;
},
{
color = 6;
glyphname = gravecomb;
layers = (
{
anchors = (
{
name = _top;
pos = (320,520);
},
{
name = top;
pos = (320,700);
}
);
layerId = m01;
shapes = (
{
closed = 1;
nodes = (
(414,570,l),
(325,700,l),
(216,700,l),
(342,570,l)
);
}
);
width = 0;
}
);
unicode = 768;
},
{
color = 6;
glyphname = acutecomb;
layers = (
{
anchors = (
{
name = _top;
pos = (320,520);
},
{
name = top;
pos = (320,700);
}
);
layerId = m01;
shapes = (
{
closed = 1;
nodes = (
(298,570,l),
(424,700,l),
(315,700,l),
(226,570,l)
);
}
);
width = 0;
}
);
unicode = 769;
},
{
color = 6;
glyphname = hungarumlautcomb;
layers = (
{
anchors = (
{
name = _top;
pos = (300,520);
},
{
name = top;
pos = (320,700);
}
);
layerId = m01;
shapes = (
{
closed = 1;
nodes = (
(365,570,l),
(491,700,l),
(395,700,l),
(298,570,l)
);
},
{
closed = 1;
nodes = (
(215,570,l),
(331,700,l),
(235,700,l),
(148,570,l)
);
}
);
width = 0;
}
);
unicode = 779;
},
{
color = 6;
glyphname = circumflexcomb;
layers = (
{
anchors = (
{
name = _top;
pos = (291,520);
},
{
name = top;
pos = (291,700);
}
);
layerId = m01;
shapes = (
{
closed = 1;
nodes = (
(227,570,l),
(291,655,l),
(352,570,l),
(433,570,l),
(337,700,l),
(249,700,l),
(148,570,l)
);
}
);
width = 0;
}
);
unicode = 770;
},
{
color = 6;
glyphname = caroncomb;
layers = (
{
anchors = (
{
name = _top;
pos = (291,520);
},
{
name = top;
pos = (291,700);
}
);
layerId = m01;
shapes = (
{
closed = 1;
nodes = (
(332,570,l),
(433,700,l),
(354,700,l),
(290,615,l),
(229,700,l),
(148,700,l),
(244,570,l)
);
}
);
width = 0;
}
);
unicode = 780;
},
{
color = 6;
glyphname = brevecomb;
layers = (
{
anchors = (
{
name = _top;
pos = (291,520);
},
{
name = top;
pos = (291,700);
}
);
layerId = m01;
shapes = (
{
closed = 1;
nodes = (
(373,568,o),
(430,622,o),
(436,700,c),
(372,700,l),
(366,656,o),
(336,623,o),
(290,623,cs),
(244,623,o),
(214,656,o),
(208,700,c),
(144,700,l),
(150,622,o),
(207,568,o),
(290,568,cs)
);
}
);
width = 0;
}
);
unicode = 774;
},
{
color = 6;
glyphname = ringcomb;
layers = (
{
anchors = (
{
name = _top;
pos = (249,520);
},
{
name = top;
pos = (249,700);
}
);
layerId = m01;
shapes = (
{
closed = 1;
nodes = (
(307,565,o),
(350,610,o),
(350,667,cs),
(350,722,o),
(307,767,o),
(249,767,cs),
(192,767,o),
(149,722,o),
(149,667,cs),
(149,610,o),
(192,565,o),
(249,565,cs)
);
},
{
closed = 1;
nodes = (
(223,620,o),
(205,639,o),
(205,666,cs),
(205,692,o),
(223,712,o),
(249,712,cs),
(276,712,o),
(294,692,o),
(294,666,cs),
(294,639,o),
(276,620,o),
(249,620,cs)
);
}
);
width = 0;
}
);
unicode = 778;
},
{
color = 6;
glyphname = tildecomb;
layers = (
{
anchors = (
{
name = _top;
pos = (185,520);
},
{
name = top;
pos = (185,700);
}
);
layerId = m01;
shapes = (
{
closed = 1;
nodes = (
(317,598,o),
(365,647,o),
(365,710,c),
(304,710,l),
(302,679,o),
(286,659,o),
(258,659,cs),
(241,659,o),
(231,665,o),
(214,682,cs),
(212,684,ls),
(188,708,o),
(159,717,o),
(124,717,cs),
(54,717,o),
(5,668,o),
(5,605,c),
(66,605,l),
(68,636,o),
(84,656,o),
(112,656,cs),
(129,656,o),
(139,650,o),
(156,633,cs),
(158,631,ls),
(182,607,o),
(212,598,o),
(247,598,cs)
);
}
);
width = 0;
}
);
unicode = 771;
},
{
color = 6;
glyphname = macroncomb;
layers = (
{
anchors = (
{
name = _top;
pos = (319,520);
},
{
name = top;
pos = (319,700);
}
);
layerId = m01;
shapes = (
{
closed = 1;
nodes = (
(458,639,l),
(458,701,l),
(180,701,l),
(180,639,l)
);
}
);
width = 0;
}
);
unicode = 772;
},
{
color = 6;
glyphname = commaturnedabovecomb;
layers = (
{
anchors = (
{
name = _top;
pos = (231,520);
},
{
name = top;
pos = (231,700);
}
);
layerId = m01;
shapes = (
{
closed = 1;
nodes = (
(270,597,o),
(294,621,o),
(294,651,cs),
(294,684,o),
(270,707,o),
(239,707,cs),
(218,707,o),
(204,699,o),
(192,684,c),
(215,696,l),
(216,732,o),
(250,756,o),
(290,766,c),
(290,810,l),
(220,800,o),
(165,746,o),
(165,675,cs),
(165,631,o),
(192,597,o),
(236,597,cs)
);
}
);
width = 0;
}
);
unicode = 786;
},
{
color = 6;
glyphname = commaaccentcomb;
layers = (
{
anchors = (
{
name = _bottom;
pos = (232,0);
}
);
layerId = m01;
shapes = (
{
closed = 1;
nodes = (
(241,-247,o),
(296,-193,o),
(296,-122,cs),
(296,-78,o),
(269,-44,o),
(225,-44,cs),
(191,-44,o),
(167,-68,o),
(167,-98,cs),
(167,-131,o),
(191,-154,o),
(222,-154,cs),
(243,-154,o),
(257,-146,o),
(269,-131,c),
(246,-143,l),
(245,-179,o),
(211,-203,o),
(171,-213,c),
(171,-257,l)
);
}
);
width = 0;
}
);
unicode = 806;
},
{
color = 6;
glyphname = cedillacomb;
layers = (
{
anchors = (
{
name = _bottom;
pos = (344,0);
}
);
layerId = m01;
shapes = (
{
closed = 1;
nodes = (
(375,-257,o),
(435,-235,o),
(435,-160,cs),
(435,-89,o),
(376,-70,o),
(347,-70,cs),
(339,-70,l),
(390,6,l),
(335,6,l),
(270,-97,l),
(284,-122,l),
(295,-120,o),
(308,-119,o),
(320,-119,cs),
(341,-119,o),
(369,-126,o),
(369,-160,cs),
(369,-189,o),
(351,-205,o),
(309,-205,cs),
(292,-205,o),
(266,-200,o),
(257,-197,c),
(257,-249,l),
(272,-254,o),
(294,-257,o),
(314,-257,cs)
);
}
);
width = 0;
}
);
unicode = 807;
},
{
color = 6;
glyphname = ogonekcomb;
layers = (
{
anchors = (
{
name = _ogonek;
pos = (227,0);
}
);
layerId = m01;
shapes = (
{
closed = 1;
nodes = (
(225,-257,o),
(246,-253,o),
(262,-249,c),
(262,-197,l),
(250,-199,o),
(239,-201,o),
(224,-201,cs),
(165,-201,o),
(132,-177,o),
(132,-128,cs),
(132,-64,o),
(201,-9,o),
(227,0,c),
(159,0,l),
(124,-22,o),
(63,-72,o),
(63,-140,cs),
(63,-223,o),
(121,-257,o),
(202,-257,cs)
);
}
);
width = 0;
}
);
unicode = 808;
},
